<svg xmlns="http://www.w3.org/2000/svg" width="36" height="36" viewBox="0 0 36 36">
  <g id="Group_4476" data-name="Group 4476" transform="translate(-3794 152)">
    <rect id="Rectangle_1477" data-name="Rectangle 1477" width="36" height="36" rx="4" transform="translate(3794 -152)" fill="none"/>
    <path id="tenancy_FILL0_wght400_GRAD0_opsz48" d="M5.333,26a3.215,3.215,0,0,1-2.361-.972,3.353,3.353,0,0,1,0-4.722,3.215,3.215,0,0,1,2.361-.972,3.41,3.41,0,0,1,.611.056,3.749,3.749,0,0,1,.611.167L11,13.472a5.006,5.006,0,0,1-.889-1.375,4.087,4.087,0,0,1-.333-1.653,4.28,4.28,0,0,1,1.306-3.139,4.426,4.426,0,0,1,6.278,0,4.28,4.28,0,0,1,1.306,3.139,4.087,4.087,0,0,1-.333,1.653,5.006,5.006,0,0,1-.889,1.375l4.444,6.111a2.639,2.639,0,0,1,.6-.194,3.34,3.34,0,0,1,.625-.056,3.339,3.339,0,0,1,2.361,5.694,3.333,3.333,0,0,1-5.694-2.361,3.074,3.074,0,0,1,.208-1.139,3.671,3.671,0,0,1,.569-.972l-4.444-6.083a2.218,2.218,0,0,1-.514.208q-.264.069-.542.125v4.639a3.278,3.278,0,0,1,1.792,1.167A3.329,3.329,0,0,1,14.222,26,3.334,3.334,0,0,1,11.6,20.611a3.278,3.278,0,0,1,1.792-1.167V14.806q-.278-.056-.542-.125a2.218,2.218,0,0,1-.514-.208L7.889,20.556a3.671,3.671,0,0,1,.569.972,3.074,3.074,0,0,1,.208,1.139,3.215,3.215,0,0,1-.972,2.361A3.215,3.215,0,0,1,5.333,26Zm0-1.667a1.6,1.6,0,0,0,1.194-.486A1.66,1.66,0,0,0,5.333,21a1.632,1.632,0,0,0-1.181.472,1.674,1.674,0,0,0,1.181,2.861ZM14.222,10.444Zm0,13.889a1.6,1.6,0,0,0,1.194-.486,1.68,1.68,0,0,0-2.375-2.375,1.674,1.674,0,0,0,1.181,2.861Zm8.889,0a1.6,1.6,0,0,0,1.194-.486,1.68,1.68,0,0,0-2.375-2.375,1.674,1.674,0,0,0,1.181,2.861ZM5.333,22.667ZM14.222,22.667ZM23.111,22.667Zm-8.889-9.444A2.751,2.751,0,0,0,17,10.444a2.751,2.751,0,0,0-2.778-2.778,2.751,2.751,0,0,0-2.778,2.778,2.751,2.751,0,0,0,2.778,2.778Z" transform="translate(3797.778 -150)" fill="#333"/>
  </g>
</svg>
