<svg xmlns="http://www.w3.org/2000/svg" width="27.998" height="28" viewBox="0 0 27.998 28">
  <g id="ico-13-toolkit-1" transform="translate(-49.12 -49.11)">
    <path id="Path_16" data-name="Path 16" d="M55.843,159.037a.258.258,0,0,1,.258.258v5.562a.258.258,0,0,1-.258.258H50.282a.26.26,0,0,1-.26-.258V159.3a.26.26,0,0,1,.26-.258h5.561m0-.9H50.282A1.162,1.162,0,0,0,49.12,159.3v5.562a1.162,1.162,0,0,0,1.162,1.16h5.561a1.162,1.162,0,0,0,1.162-1.16V159.3A1.162,1.162,0,0,0,55.843,158.14Z" transform="translate(0 -88.915)" fill="#fff"/>
    <path id="Path_17" data-name="Path 17" d="M110.353,159.037a.26.26,0,0,1,.26.258v5.562a.26.26,0,0,1-.26.258h-5.561a.26.26,0,0,1-.26-.258V159.3a.26.26,0,0,1,.26-.258h5.561m0-.9h-5.561a1.162,1.162,0,0,0-1.162,1.162v5.562a1.162,1.162,0,0,0,1.162,1.16h5.561a1.162,1.162,0,0,0,1.162-1.16V159.3A1.162,1.162,0,0,0,110.353,158.14Z" transform="translate(-44.453 -88.915)" fill="#fff"/>
    <path id="Path_18" data-name="Path 18" d="M164.865,159.037a.258.258,0,0,1,.258.258v5.562a.258.258,0,0,1-.258.258H159.3a.258.258,0,0,1-.258-.258V159.3a.258.258,0,0,1,.258-.258h5.562m0-.9H159.3a1.164,1.164,0,0,0-1.162,1.162v5.562a1.162,1.162,0,0,0,1.162,1.16h5.562a1.16,1.16,0,0,0,1.16-1.16V159.3A1.162,1.162,0,0,0,164.865,158.14Z" transform="translate(-88.907 -88.915)" fill="#fff"/>
    <path id="Path_19" data-name="Path 19" d="M55.843,104.532a.26.26,0,0,1,.258.26v5.561a.26.26,0,0,1-.258.26H50.282a.26.26,0,0,1-.262-.26v-5.561a.26.26,0,0,1,.26-.26h5.562m0-.9H50.282a1.162,1.162,0,0,0-1.162,1.162v5.561a1.162,1.162,0,0,0,1.162,1.162h5.561a1.162,1.162,0,0,0,1.162-1.162v-5.561A1.162,1.162,0,0,0,55.843,103.63Z" transform="translate(0 -44.462)" fill="#fff"/>
    <path id="Path_20" data-name="Path 20" d="M110.353,104.532a.26.26,0,0,1,.26.26v5.561a.26.26,0,0,1-.26.26h-5.561a.26.26,0,0,1-.26-.26v-5.561a.26.26,0,0,1,.26-.26h5.561m0-.9h-5.561a1.162,1.162,0,0,0-1.162,1.162v5.561a1.162,1.162,0,0,0,1.162,1.162h5.561a1.162,1.162,0,0,0,1.162-1.162v-5.561A1.162,1.162,0,0,0,110.353,103.63Z" transform="translate(-44.453 -44.462)" fill="#fff"/>
    <path id="Path_21" data-name="Path 21" d="M164.865,104.532a.26.26,0,0,1,.258.26v5.561a.26.26,0,0,1-.258.26H159.3a.26.26,0,0,1-.258-.26v-5.561a.26.26,0,0,1,.258-.26h5.562m0-.9H159.3a1.162,1.162,0,0,0-1.162,1.162v5.561a1.162,1.162,0,0,0,1.162,1.162h5.562a1.162,1.162,0,0,0,1.16-1.162v-5.561A1.162,1.162,0,0,0,164.865,103.63Z" transform="translate(-88.907 -44.462)" fill="#fff"/>
    <path id="Path_22" data-name="Path 22" d="M55.843,50.012a.258.258,0,0,1,.258.258v5.564a.258.258,0,0,1-.258.258H50.282a.26.26,0,0,1-.262-.258V50.272a.26.26,0,0,1,.262-.26h5.561m0-.9H50.282a1.162,1.162,0,0,0-1.162,1.16v5.564A1.162,1.162,0,0,0,50.282,57h5.561a1.162,1.162,0,0,0,1.162-1.162V50.272a1.162,1.162,0,0,0-1.162-1.16Z" transform="translate(0)" fill="#fff"/>
    <path id="Path_23" data-name="Path 23" d="M110.353,50.02a.26.26,0,0,1,.26.258v5.564a.26.26,0,0,1-.26.258h-5.561a.26.26,0,0,1-.26-.258V50.28a.26.26,0,0,1,.26-.258h5.561m0-.9h-5.561a1.162,1.162,0,0,0-1.162,1.16v5.562a1.162,1.162,0,0,0,1.162,1.162h5.561a1.162,1.162,0,0,0,1.162-1.162V50.28A1.162,1.162,0,0,0,110.353,49.12Z" transform="translate(-44.453 -0.008)" fill="#fff"/>
    <path id="Path_24" data-name="Path 24" d="M164.865,50.02a.258.258,0,0,1,.258.258v5.564a.258.258,0,0,1-.258.258H159.3a.258.258,0,0,1-.258-.258V50.28a.258.258,0,0,1,.258-.258h5.562m0-.9H159.3a1.162,1.162,0,0,0-1.162,1.16v5.562a1.162,1.162,0,0,0,1.162,1.162h5.562a1.162,1.162,0,0,0,1.16-1.162V50.28A1.16,1.16,0,0,0,164.865,49.12Z" transform="translate(-88.907 -0.008)" fill="#fff"/>
  </g>
</svg>
