<svg xmlns="http://www.w3.org/2000/svg" width="50" height="50" viewBox="0 0 50 50">
  <g id="Group_3391" data-name="Group 3391" transform="translate(0 -156)">
    <g id="Group_3385" data-name="Group 3385" transform="translate(-1124 43.245)">
      <g id="contacts-77" transform="translate(1135 126.255)">
        <path id="Path_1448" data-name="Path 1448" d="M50.855-511.832a3.371,3.371,0,0,0-.563.211,2.93,2.93,0,0,0-1.017,1.067A3.757,3.757,0,0,0,49-508.627v1.026h1.229c1.193,0,1.229,0,1.45.108a.9.9,0,0,1,.513.522,1.082,1.082,0,0,1-.509,1.409c-.176.095-.252.1-1.432.113L49-505.435v4h1.053c.576,0,1.161.023,1.292.045a1.175,1.175,0,0,1,.783.513.8.8,0,0,1,.135.545.8.8,0,0,1-.135.545,1.218,1.218,0,0,1-.356.356l-.221.135-1.265.023-1.265.022v3.961l1.287.022,1.287.023.189.126a1.128,1.128,0,0,1,.477,1.108,1.177,1.177,0,0,1-.518.725c-.2.112-.221.112-1.463.135l-1.26.023-.014.954a3.534,3.534,0,0,0,.27,1.9,2.859,2.859,0,0,0,.986,1.035,3.007,3.007,0,0,0,.608.234c.342.09.513.09,8.5.09,5.591,0,8.238-.013,8.423-.05a3.326,3.326,0,0,0,.63-.22,2.506,2.506,0,0,0,1.319-1.729c.072-.383.068-18.7,0-19.033a2.542,2.542,0,0,0-1.949-1.922c-.185-.036-2.827-.049-8.441-.045C51.453-511.918,51.174-511.913,50.855-511.832Zm16.845,1.4a1.164,1.164,0,0,1,.639.612c.072.189.077.77.045,9.409-.027,8.787-.032,9.22-.113,9.4a1.108,1.108,0,0,1-.509.527c-.162.081-.4.086-8.4.086H51.134l-.243-.149a.991.991,0,0,1-.5-.887v-.261l.666-.018a2.414,2.414,0,0,0,.972-.14,2.569,2.569,0,0,0,1.54-1.675,2.974,2.974,0,0,0,0-1.35,2.589,2.589,0,0,0-1.783-1.756,3.721,3.721,0,0,0-.8-.067h-.554v-1.112l.644-.022a2.589,2.589,0,0,0,1.45-.369,2.827,2.827,0,0,0,.869-.918,2.491,2.491,0,0,0,.054-2.327,2.416,2.416,0,0,0-.9-1.013,2.506,2.506,0,0,0-1.49-.4l-.621-.018v-1.071h.486a2.568,2.568,0,0,0,2.039-.765,2.521,2.521,0,0,0,.743-1.351,2.513,2.513,0,0,0-1.283-2.674,2.739,2.739,0,0,0-1.432-.3h-.554v-.306a1.03,1.03,0,0,1,.608-1.026l.225-.108H59.4C65.035-510.482,67.579-510.468,67.7-510.432Z" transform="translate(-46.795 511.918)" fill="#fff"/>
        <path id="Path_1449" data-name="Path 1449" d="M169.767-398.844a3.429,3.429,0,0,0-2.435,2.233,3.752,3.752,0,0,0-.09,1.747,3.846,3.846,0,0,0,.585,1.26,2,2,0,0,1,.162.23,5.339,5.339,0,0,1-.437.324,8.78,8.78,0,0,0-1.738,1.729A8.708,8.708,0,0,0,164.8-389.3a5.243,5.243,0,0,0-.3,1.733c0,.531,0,.545.153.824a1.991,1.991,0,0,0,.351.459c.383.333.041.315,5.6.315h4.983l.284-.149a1.557,1.557,0,0,0,.788-1.58,7.41,7.41,0,0,0-3.165-5.416l-.369-.252.2-.279a3.373,3.373,0,0,0-.63-4.538,3.841,3.841,0,0,0-1.346-.662A3.74,3.74,0,0,0,169.767-398.844Zm1.107,1.4a2.216,2.216,0,0,1,1.094.59,1.9,1.9,0,0,1-.081,2.674,2.3,2.3,0,0,1-.8.509l-.522.234-.558-.261a2.065,2.065,0,0,1-1.193-1.035,1.293,1.293,0,0,1-.171-.842,1.3,1.3,0,0,1,.144-.792,2.046,2.046,0,0,1,1.706-1.116A1.909,1.909,0,0,1,170.874-397.444Zm.261,4.839a5.322,5.322,0,0,1,2.341,1.31,5.612,5.612,0,0,1,1.733,3.628l.027.261h-9.323l.027-.284a5.65,5.65,0,0,1,1.369-3.264,5.841,5.841,0,0,1,1.981-1.427,12.434,12.434,0,0,1,1.265-.378C170.568-392.762,170.829-392.69,171.135-392.6Z" transform="translate(-157.095 404.012)" fill="#fff"/>
        <path id="Path_1450" data-name="Path 1450" d="M.571-405.919A.611.611,0,0,0,.53-404.83c.144.086.234.09,2.156.09H4.694l.153-.1a.609.609,0,0,0-.054-1.076A7.4,7.4,0,0,0,2.682-406,7.4,7.4,0,0,0,.571-405.919Z" transform="translate(-0.207 410.768)" fill="#fff"/>
        <path id="Path_1451" data-name="Path 1451" d="M.431-268.788a.452.452,0,0,0-.36.3.691.691,0,0,0,.207.842,9.48,9.48,0,0,0,2.219.072c1.985,0,2.089,0,2.228-.09a.645.645,0,0,0,.216-.662.51.51,0,0,0-.405-.464C4.32-268.837.638-268.837.431-268.788Z" transform="translate(-0.013 279.768)" fill="#fff"/>
        <path id="Path_1452" data-name="Path 1452" d="M.583-131.716a.533.533,0,0,0-.378.329.625.625,0,0,0,.234.779c.14.086.221.09,2.183.09,2.291,0,2.219.009,2.386-.338a.511.511,0,0,0,0-.563c-.176-.342-.14-.338-2.318-.347A12.175,12.175,0,0,0,.583-131.716Z" transform="translate(-0.147 148.882)" fill="#fff"/>
      </g>
    </g>
    <rect id="BG" width="50" height="50" transform="translate(0 156)" fill="none"/>
  </g>
</svg>
