<svg xmlns="http://www.w3.org/2000/svg" width="28" height="24.125" viewBox="0 0 28 24.125">
  <g id="ico-12-feedback" transform="translate(-49.12 -59.62)">
    <path id="Path_15" data-name="Path 15" d="M74.862,59.62H51.378a2.26,2.26,0,0,0-2.258,2.258V76.33a2.26,2.26,0,0,0,2.258,2.258H67.45l5.155,5.157V78.589h2.256A2.26,2.26,0,0,0,77.12,76.33V61.878A2.26,2.26,0,0,0,74.862,59.62ZM76.22,76.33a1.358,1.358,0,0,1-1.356,1.356H71.7v3.875l-3.875-3.875H51.378A1.358,1.358,0,0,1,50.02,76.33V61.878a1.356,1.356,0,0,1,1.356-1.354H74.862a1.356,1.356,0,0,1,1.358,1.354Z" transform="translate(0 0)" fill="#fff"/>
    <rect id="Rectangle_3" data-name="Rectangle 3" width="13.548" height="0.904" transform="translate(56.345 68.653)" fill="#fff"/>
    <rect id="Rectangle_4" data-name="Rectangle 4" width="13.548" height="0.902" transform="translate(56.345 64.137)" fill="#fff"/>
    <rect id="Rectangle_5" data-name="Rectangle 5" width="9.033" height="0.904" transform="translate(56.345 73.17)" fill="#fff"/>
  </g>
</svg>
