<svg xmlns="http://www.w3.org/2000/svg" width="13" height="13" viewBox="0 0 13 13">
  <path id="icon-search" d="M18.084,18.95,14.6,15.47a4.588,4.588,0,0,1-1.457.844,5.151,5.151,0,0,1-1.77.3,5.183,5.183,0,0,1-3.81-1.562A5.139,5.139,0,0,1,6,11.283a5.139,5.139,0,0,1,1.562-3.77A5.158,5.158,0,0,1,11.351,5.95a5.1,5.1,0,0,1,3.758,1.562,5.333,5.333,0,0,1,1.26,5.5,5.288,5.288,0,0,1-.874,1.562L19,18.033Zm-6.733-3.585a3.9,3.9,0,0,0,2.873-1.2,3.951,3.951,0,0,0,1.187-2.885A3.951,3.951,0,0,0,14.224,8.4a3.9,3.9,0,0,0-2.873-1.2,4.088,4.088,0,0,0-4.1,4.083,4.088,4.088,0,0,0,4.1,4.083Z" transform="translate(-6 -5.95)" fill="#999"/>
</svg>
