<svg xmlns="http://www.w3.org/2000/svg" width="10.958" height="10.959" viewBox="0 0 10.958 10.959">
  <path id="icon-pencil" d="M118.218.753a1.681,1.681,0,0,0-2.377,0l-6.665,6.665a.374.374,0,0,0-.1.164l-.876,3.164a.373.373,0,0,0,.46.46l3.164-.877a.373.373,0,0,0,.164-.1l6.665-6.665a1.683,1.683,0,0,0,0-2.377ZM109.99,7.661l5.455-5.455L117.2,3.965,111.749,9.42Zm-.351.705,1.405,1.406-1.944.539Zm8.49-5.325-.4.4-1.759-1.759.4-.4a.934.934,0,0,1,1.321,0l.439.438A.935.935,0,0,1,118.129,3.041Zm0,0" transform="translate(-108.19 -0.261)"/>
</svg>
