<svg xmlns="http://www.w3.org/2000/svg" width="30" height="30" viewBox="0 0 30 30">
  <g id="icon-reset" transform="translate(-518 -537)">
    <path id="replay_FILL0_wght400_GRAD0_opsz48" d="M15,23.025a8.841,8.841,0,0,1-3.513-.7A8.975,8.975,0,0,1,6.7,17.538,8.841,8.841,0,0,1,6,14.025H7.5a7.469,7.469,0,0,0,7.5,7.5,7.469,7.469,0,0,0,7.5-7.5,7.342,7.342,0,0,0-2.125-5.312,7.028,7.028,0,0,0-5.25-2.187H14.55L16.375,8.35,15.35,9.4,11.675,5.725,15.35,2.05l1.025,1.025-1.95,1.95H15a8.841,8.841,0,0,1,3.512.7A8.975,8.975,0,0,1,23.3,10.513a9.163,9.163,0,0,1,0,7.025,8.975,8.975,0,0,1-4.788,4.787A8.841,8.841,0,0,1,15,23.025Z" transform="translate(518 539.463)" fill="#666"/>
    <rect id="Rectangle_1498" data-name="Rectangle 1498" width="30" height="30" transform="translate(518 537)" fill="none"/>
  </g>
</svg>
