<svg id="lazard-logo" xmlns="http://www.w3.org/2000/svg" width="111.146" height="21" viewBox="0 0 111.146 21">
  <path id="Fill-1" d="M88.952,6.158h.234c.117.039.156.079.156.158a.3.3,0,0,1-.117.276c-3.7,5.449-7.4,10.9-11.262,16.308l5.963-.04c2.65,0,3.468-.434,4.014-1.145a3.444,3.444,0,0,0,.507-1.263.722.722,0,0,1,.234-.395h.234s-.39,2.646-.545,3.238-.2.632-.78.632H75.39c-.273,0-.39-.158-.39-.316,0-.118.078-.237.351-.671,2.806-3.909,5.962-7.818,8.846-11.767.9-1.224,1.793-2.488,2.65-3.752.078-.118.156-.2.234-.316l-6.313.039a12.035,12.035,0,0,0-1.871.119,4.257,4.257,0,0,0-1.13.355,3.93,3.93,0,0,0-1.442,1.856l-.273.434a.427.427,0,0,1-.156-.316c0-.277.351-2.409.507-3.119A.624.624,0,0,1,76.637,6s.156.119.858.119h4.559l6.9.039" transform="translate(-36.585 -2.927)" fill="#23283c" fill-rule="evenodd"/>
  <path id="Fill-2" d="M41.344,14.57l2.513-7.364,2.554,7.364Zm11.331,7.893c-.479-.163-1.157-.529-2.035-2.6L44.216,4.073c-.08-.2-.16.081-.16.081l-6.024,16.03c-.439,1.261-.918,2.238-2.075,2.359-.2.041-.957.082-.957.082v.122a.625.625,0,0,0,.479.2h4.748a.442.442,0,0,0,.359-.2v-.081l-.479-.041c-.439,0-.957-.244-.957-.733a4.873,4.873,0,0,1,.359-1.709l1.6-4.72,5.625.041,2.394,6.387c.16.407,0,.61-.16.651-.08.041-.16.082-.16.2,0,.163.24.2.718.2h3.91a.914.914,0,0,0,.518-.2l-.04-.122a7.059,7.059,0,0,1-1.237-.163Z" transform="translate(-17.073 -1.951)" fill="#23283c" fill-rule="evenodd"/>
  <path id="Fill-3" d="M112.357,14.57l2.518-7.364,2.559,7.364Zm11.354,7.893c-.479-.163-1.2-.529-2.039-2.6L115.235,4.073c-.079-.2-.16.081-.16.081l-6.037,16.03c-.439,1.261-.959,2.238-2.079,2.359-.2.041-.959.082-.959.082v.122a.626.626,0,0,0,.479.2h4.758a.442.442,0,0,0,.36-.2v-.081l-.48-.041c-.44,0-.959-.244-.959-.733a4.867,4.867,0,0,1,.36-1.709l1.6-4.72,5.637.041,2.4,6.387c.12.407,0,.61-.16.651-.12.041-.16.082-.16.2,0,.163.24.2.72.2h3.918a.741.741,0,0,0,.479-.2v-.122a7.092,7.092,0,0,1-1.24-.163Z" transform="translate(-51.707 -1.951)" fill="#23283c" fill-rule="evenodd"/>
  <path id="Fill-4" d="M.515,21a.442.442,0,0,1-.357-.24v-.12s.674-.08.911-.12c.475-.12.792-.682.91-1.363.119-1.042.119-2.926.119-5.25V9.619c0-3.767,0-7.014-.079-7.815C1.979,1,1.781.6.99.441.832.4.2.361.2.361L0,.241.04,0S3.127.12,3.247.12,6.176,0,6.176,0V.241l-.159.12S5.5.4,5.226.441c-.713.12-.911.521-.95,1.362-.039.8-.039,4.048-.039,7.815v4.328c0,3.566.119,4.889.514,5.37.436.481,3.128.6,5.859.641h.872c2.732,0,3.365-.481,3.88-1.2a3.029,3.029,0,0,0,.514-1.283.794.794,0,0,1,.237-.361h.277S15.955,19.8,15.8,20.4c-.118.561-.158.6-.752.6H.515" transform="translate(0 0)" fill="#23283c" fill-rule="evenodd"/>
  <path id="Fill-5" d="M154.294,15.142a5.989,5.989,0,0,1-2.615.477,6.8,6.8,0,0,1-2.494-.4.3.3,0,0,1-.161-.279V7.153a.266.266,0,0,1,.161-.279,7.223,7.223,0,0,1,1.609-.119,4.731,4.731,0,0,1,4.949,4.73c0,1.828-.6,3.1-1.449,3.657m8.49,8.387a4.988,4.988,0,0,1-2.937-1.709c-1.368-1.47-3.018-3.577-4.989-6.082C157.03,13.791,157.8,12,157.8,10.253a4.16,4.16,0,0,0-1.69-3.22C154.858,6.119,152.444,6,150.914,6c-.724,0-2.575.04-2.816.04-.12,0-3.1-.04-3.1-.04v.159s.08.159.2.159a5.53,5.53,0,0,1,.8.079c.8.159.966.517,1.046,1.352.04.755.04,1.431.04,5.128V17.05c0,2.306,0,4.174-.12,5.167-.121.676-.241,1.192-.724,1.312-.2.04-.885.079-.885.079v.159a.467.467,0,0,0,.362.159h5.231a.467.467,0,0,0,.362-.159l-.041-.159s-.885-.04-1.207-.079c-.724-.119-.885-.636-.966-1.312-.08-.994-.08-2.862-.08-5.167v-.557c0-.119.04-.2.161-.2l3.742.04c.16,0,.2.04.322.159.483.6,1.609,2.186,2.615,3.5,1.368,1.789,2.213,2.941,3.219,3.5a5.236,5.236,0,0,0,2.575.437h1.73a.82.82,0,0,0,.563-.159l-.121-.159a7.575,7.575,0,0,1-1.046-.079" transform="translate(-70.732 -2.927)" fill="#23283c" fill-rule="evenodd"/>
  <path id="Fill-6" d="M192.607,23.094a18.831,18.831,0,0,1-2.862-.08l-.549-.158a.6.6,0,0,1-.117-.4c-.04-.793-.04-3.213-.04-5.037V12.5c0-1.785,0-4.2.04-5a.531.531,0,0,1,.117-.4l.549-.2c.313-.04,1.059-.079,1.1-.079a8.129,8.129,0,0,1,1.686.04,8.694,8.694,0,0,1,1.49.317,5.11,5.11,0,0,1,1.412.634c2.392,1.388,3.96,3.53,3.96,7.258.039,3.212-.941,5.672-3.176,6.981a6.947,6.947,0,0,1-3.607,1.031m-.549.833a8.755,8.755,0,0,0,7.019-2.776,4.161,4.161,0,0,0,.667-.912,13.049,13.049,0,0,0,.863-1.586,9.664,9.664,0,0,0-1.411-10.074c-2.275-2.221-4.745-2.459-7.137-2.538L185,6v.238s.078.119.157.119a1.093,1.093,0,0,1,.313.04h.039a2.968,2.968,0,0,1,.667.04c.078.04.157.04.2.079h.078c.079.04.118.04.2.08a.537.537,0,0,1,.157.119l.118.119.039.04v.08a1.313,1.313,0,0,1,.2.833c.039.754.039,1.428.039,5.116v4.164c0,3.649,0,4.323-.039,5.077a1.371,1.371,0,0,1-.2.872v.04a.039.039,0,0,1-.039.04l-.118.119a.528.528,0,0,1-.157.119c-.078.04-.117.079-.2.119h-.078a.291.291,0,0,1-.2.04,2.538,2.538,0,0,1-.667.079H185.2c-.079,0-.118.159-.118.159v.2h6.979" transform="translate(-90.244 -2.927)" fill="#23283c" fill-rule="evenodd"/>
</svg>
