<svg xmlns="http://www.w3.org/2000/svg" width="100.8" height="19.045" viewBox="0 0 100.8 19.045">
  <g id="lazard" transform="translate(-50.578 -17.5)">
    <path id="Fill-1" d="M87.653,6.143h.212c.106.036.142.071.142.143a.268.268,0,0,1-.106.25c-3.357,4.942-6.715,9.884-10.214,14.79l5.408-.036c2.4,0,3.146-.394,3.64-1.039a3.123,3.123,0,0,0,.459-1.146.655.655,0,0,1,.212-.358h.212s-.353,2.4-.495,2.937-.177.573-.707.573H75.353c-.248,0-.353-.143-.353-.287,0-.107.071-.215.318-.609,2.545-3.545,5.407-7.09,8.023-10.671.813-1.11,1.626-2.256,2.4-3.4.071-.107.141-.179.212-.286l-5.725.036a10.914,10.914,0,0,0-1.7.108,3.861,3.861,0,0,0-1.025.322A3.564,3.564,0,0,0,76.2,9.151l-.248.394a.387.387,0,0,1-.141-.286c0-.251.318-2.185.46-2.829A.566.566,0,0,1,76.484,6s.141.108.778.108H81.4l6.256.036" transform="translate(10.416 14.287)" fill="#fff" fill-rule="evenodd"/>
    <path id="Fill-2" d="M40.753,13.586l2.279-6.679,2.316,6.679Zm10.276,7.158c-.434-.148-1.049-.48-1.845-2.362L43.358,4.066c-.072-.184-.145.074-.145.074L37.75,18.678c-.4,1.144-.832,2.029-1.882,2.14-.181.037-.868.074-.868.074V21a.567.567,0,0,0,.434.185H39.74A.4.4,0,0,0,40.066,21v-.074l-.435-.037c-.4,0-.868-.221-.868-.664a4.42,4.42,0,0,1,.325-1.55L40.536,14.4l5.1.037,2.171,5.793c.145.369,0,.553-.145.59-.072.037-.145.074-.145.184,0,.148.217.185.651.185h3.546a.829.829,0,0,0,.47-.185l-.036-.11a6.4,6.4,0,0,1-1.122-.148Z" transform="translate(31.836 15.358)" fill="#fff" fill-rule="evenodd"/>
    <path id="Fill-3" d="M111.766,13.586l2.284-6.679,2.321,6.679Zm10.3,7.158c-.435-.148-1.087-.48-1.849-2.362L114.376,4.066c-.072-.184-.145.074-.145.074l-5.475,14.538c-.4,1.144-.87,2.029-1.885,2.14-.182.037-.87.074-.87.074V21a.568.568,0,0,0,.435.185h4.315a.4.4,0,0,0,.327-.185v-.074l-.435-.037c-.4,0-.87-.221-.87-.664a4.414,4.414,0,0,1,.326-1.55l1.451-4.281,5.112.037,2.176,5.793c.109.369,0,.553-.145.59-.109.037-.145.074-.145.184,0,.148.218.185.653.185h3.554a.672.672,0,0,0,.435-.185v-.11a6.432,6.432,0,0,1-1.124-.148Z" transform="translate(-6.184 15.358)" fill="#fff" fill-rule="evenodd"/>
    <path id="Fill-4" d="M.467,19.045a.4.4,0,0,1-.324-.218v-.109s.611-.073.826-.109c.431-.109.718-.618.825-1.236.108-.945.108-2.653.108-4.762V8.723c0-3.417,0-6.361-.072-7.088C1.795.909,1.615.545.9.4.754.363.18.327.18.327L0,.218.036,0s2.8.109,2.908.109S5.6,0,5.6,0V.218L5.457.327S4.99.363,4.74.4c-.646.109-.826.472-.862,1.235-.036.727-.036,3.671-.036,7.088v3.925c0,3.234.108,4.434.466,4.87.4.436,2.837.545,5.314.581h.791c2.477,0,3.051-.436,3.519-1.09a2.747,2.747,0,0,0,.466-1.163.72.72,0,0,1,.215-.327h.251s-.394,2.435-.539,2.981c-.107.509-.143.545-.682.545H.467" transform="translate(50.578 17.5)" fill="#fff" fill-rule="evenodd"/>
    <path id="Fill-5" d="M153.429,14.291a5.431,5.431,0,0,1-2.372.433,6.171,6.171,0,0,1-2.262-.361.272.272,0,0,1-.146-.253V7.045a.241.241,0,0,1,.146-.253,6.551,6.551,0,0,1,1.46-.108,4.291,4.291,0,0,1,4.489,4.29,3.85,3.85,0,0,1-1.314,3.316m7.7,7.607a4.524,4.524,0,0,1-2.664-1.55c-1.241-1.334-2.737-3.244-4.525-5.516,1.97-1.766,2.664-3.388,2.664-4.974a3.772,3.772,0,0,0-1.532-2.92C153.94,6.108,151.751,6,150.364,6c-.656,0-2.335.036-2.554.036C147.7,6.036,145,6,145,6v.144s.073.144.183.144a5.015,5.015,0,0,1,.73.072c.73.144.876.469.949,1.226.036.685.036,1.3.036,4.65v3.785c0,2.091,0,3.785-.109,4.686-.11.613-.219,1.081-.657,1.19-.183.036-.8.072-.8.072v.144a.424.424,0,0,0,.328.144H150.4a.424.424,0,0,0,.328-.144l-.037-.144s-.8-.036-1.094-.072c-.657-.108-.8-.577-.876-1.19-.073-.9-.073-2.6-.073-4.686v-.5c0-.108.037-.18.146-.18l3.394.036c.145,0,.182.036.292.144.438.541,1.46,1.983,2.372,3.172,1.241,1.622,2.007,2.668,2.919,3.172a4.749,4.749,0,0,0,2.336.4h1.569a.744.744,0,0,0,.511-.144l-.11-.144a6.87,6.87,0,0,1-.949-.072" transform="translate(-27.068 14.287)" fill="#fff" fill-rule="evenodd"/>
    <path id="Fill-6" d="M191.9,21.5a17.077,17.077,0,0,1-2.6-.072l-.5-.144a.542.542,0,0,1-.106-.36c-.036-.719-.036-2.914-.036-4.568V11.9c0-1.619,0-3.813.036-4.532a.482.482,0,0,1,.106-.36l.5-.18c.284-.036.96-.072,1-.072a7.372,7.372,0,0,1,1.529.036,7.884,7.884,0,0,1,1.351.288,4.634,4.634,0,0,1,1.28.575,6.928,6.928,0,0,1,3.592,6.582c.036,2.913-.853,5.144-2.88,6.331a6.3,6.3,0,0,1-3.272.935m-.5.755a7.94,7.94,0,0,0,6.365-2.518,3.773,3.773,0,0,0,.6-.827,11.833,11.833,0,0,0,.782-1.439,8.764,8.764,0,0,0-1.28-9.136c-2.063-2.014-4.3-2.23-6.473-2.3L185,6v.216s.071.108.142.108a.991.991,0,0,1,.284.036h.036a2.692,2.692,0,0,1,.6.036c.071.036.142.036.177.072h.071c.072.036.107.036.178.072a.487.487,0,0,1,.142.108l.107.108.036.036v.072a1.191,1.191,0,0,1,.177.755c.036.684.036,1.295.036,4.64v3.777c0,3.309,0,3.921-.036,4.6a1.243,1.243,0,0,1-.177.791v.036a.035.035,0,0,1-.036.036l-.107.108a.479.479,0,0,1-.142.108c-.071.036-.106.072-.178.108h-.071a.264.264,0,0,1-.177.036,2.3,2.3,0,0,1-.6.072h-.284c-.072,0-.107.144-.107.144v.18H191.4" transform="translate(-48.487 14.287)" fill="#fff" fill-rule="evenodd"/>
  </g>
</svg>
