<svg id="LCP" xmlns="http://www.w3.org/2000/svg" width="48" height="48" viewBox="0 0 48 48">
  <rect id="Rectangle_1107" data-name="Rectangle 1107" width="48" height="48" fill="none"/>
  <g id="Group_4472" data-name="Group 4472" transform="translate(-3334 122)">
    <rect id="Rectangle_1475" data-name="Rectangle 1475" width="36" height="36" transform="translate(3340 -116)" fill="none"/>
    <path id="policy_FILL0_wght400_GRAD0_opsz48" d="M17.6,18.58a2.6,2.6,0,0,0,1.89-.765,2.7,2.7,0,0,0,0-3.795,2.67,2.67,0,0,0-4.56,1.89,2.56,2.56,0,0,0,.78,1.9A2.6,2.6,0,0,0,17.6,18.58Zm0,7.56a11.462,11.462,0,0,0,2.88-1.515,9.309,9.309,0,0,0,2.37-2.355l-2.76-2.64a6.475,6.475,0,0,1-1.2.54,4.054,4.054,0,0,1-1.29.21,4.431,4.431,0,0,1-4.47-4.47,4.456,4.456,0,0,1,4.47-4.47,4.456,4.456,0,0,1,4.47,4.5,4.568,4.568,0,0,1-.18,1.26,3.394,3.394,0,0,1-.57,1.14l2.52,2.4A12.541,12.541,0,0,0,24.98,17.9a12.011,12.011,0,0,0,.42-3.165V8.8L17.6,5.95,9.8,8.8v5.94a12.24,12.24,0,0,0,2.175,7.095A10.823,10.823,0,0,0,17.6,26.14Zm0,1.86a11.781,11.781,0,0,1-6.9-4.875A14.229,14.229,0,0,1,8,14.74V7.6L17.6,4l9.6,3.6v7.14a14.229,14.229,0,0,1-2.7,8.385A11.781,11.781,0,0,1,17.6,28ZM17.6,16.03Z" transform="translate(3340 -114)" fill="#666"/>
  </g>
</svg>
