<svg xmlns="http://www.w3.org/2000/svg" width="29" height="29" viewBox="0 0 29 29">
  <g id="Group_2" data-name="Group 2" transform="translate(-234 -200)">
    <g id="Rectangle_1468" data-name="Rectangle 1468" transform="translate(234 200)" fill="#fff" stroke="#e6e6e6" stroke-width="1">
      <rect width="29" height="29" rx="5" stroke="none"/>
      <rect x="0.5" y="0.5" width="28" height="28" rx="4.5" fill="none"/>
    </g>
    <g id="Group_1" data-name="Group 1" transform="translate(-29.681 4.862)">
      <path id="Path_2" data-name="Path 2" d="M11,20h3.506V31.1H11Z" transform="translate(260 186.425)" fill="#666"/>
      <path id="Path_3" data-name="Path 3" d="M12.753,14.922h0A1.583,1.583,0,0,1,11,13.442,1.556,1.556,0,0,1,12.753,12a1.581,1.581,0,0,1,1.753,1.442A1.558,1.558,0,0,1,12.753,14.922Z" transform="translate(260 189.75)" fill="#666"/>
      <path id="Path_4" data-name="Path 4" d="M31.1,31.1H27.6V25.259A2.1,2.1,0,0,0,25.551,22.9c-1.448-.026-2.045,1.194-2.045,2.362V31.1H20V20h3.506v1.5A4.378,4.378,0,0,1,26.9,20c2.317,0,4.2,1.593,4.2,4.827Z" transform="translate(256.259 186.425)" fill="#666"/>
    </g>
  </g>
</svg>
