<svg xmlns="http://www.w3.org/2000/svg" width="48" height="48" viewBox="0 0 48 48">
  <g id="Group_4495" data-name="Group 4495" transform="translate(-1876 -289)">
    <rect id="Rectangle_1107" data-name="Rectangle 1107" width="48" height="48" transform="translate(1876 289)" fill="none"/>
    <g id="Group_3467" data-name="Group 3467" transform="translate(1884 297)">
      <rect id="Rectangle_1105" data-name="Rectangle 1105" width="33" height="33" fill="none"/>
      <g id="Group_3466" data-name="Group 3466" transform="translate(5 5)">
        <path id="Path_2862" data-name="Path 2862" d="M171.931-118.742c2.035.643,3.8,1.392,4.017,1.767.8,1.178.375,1.392-.964.482a17.289,17.289,0,0,0-4.391-1.5c-2.089-.428-3.213-.964-3.8-1.874-.8-1.178-.8-1.232.375-.589A40.879,40.879,0,0,0,171.931-118.742Zm9.533-.054c1.607,0,2.945.536,2.945,1.125,0,.268-.589.482-1.285.482-.938,0-1.888,1.348-1.888,1.348s-.045.1-.59,0-1.166-.327-1.589-.409-.26.132-.26.132a8.292,8.292,0,0,1,2.167,1.046c.452.469.391.491.391.491a5.69,5.69,0,0,0,.805,1.89c.857.964.857,1.017-.161.589-.589-.214-1.874-.7-2.785-1.017-2.41-.91-2.517-1.071-1.821-3.053.7-2.035,2.356-4.017,2.624-3.213C180.125-119.063,180.767-118.8,181.464-118.8Zm-12.585,1.714c0,.589-1.266.368-2.366-.208a4.7,4.7,0,0,1-2.033-2.1,8.163,8.163,0,0,1,1.454.643,7.093,7.093,0,0,0,1.071.321C168.022-117.938,168.878-117.349,168.878-117.082Zm-.054.589c.964-.054,1.071.054.536.428-.589.375-.482.482.428.482.643,0,1.339.214,1.5.536.165.289.169.544-.7.661a6.092,6.092,0,0,1-3-.715,4.069,4.069,0,0,1-1.66-1.392c-.056-.168-.349-.479-.324-.7s.452.07.967.268A6.01,6.01,0,0,0,168.825-116.492Zm7.551,2.142c0,.643,2.463,1.981,5.195,2.785,1.446.428,2.035,2.2,1.339,4.016-.7,1.874.964,7.551,2.356,8.087.857.321.8.428-.482.428-.964.054-1.607-.268-1.767-.91-.214-.482-.964-2.142-1.767-3.7-.559-1.118-1.089-2.571-1.089-2.571a8.141,8.141,0,0,1-.3,1.088,2.183,2.183,0,0,1-2.042,1.607,12.262,12.262,0,0,1-3.929-.852,4.514,4.514,0,0,1-.623-.387,3.5,3.5,0,0,0-1.2-.4s-.494-.084-.7.142c.034-.009.183-.172.887.092.291.125,1.975.751,2.159,1.314a1.518,1.518,0,0,1,0,1.468c-.4.683-1.723.721-2.365,1.553-1.178,1.446-.7,1.466,1.66,1.305a7.219,7.219,0,0,1,2.249.469c.184.134.113.151-.272.3a15.672,15.672,0,0,1-2.941.067c-1.19,0-2.423-.025-2.95-.067s-.175-.2-.335-.452a6.111,6.111,0,0,1-.3-.552s-1.125-.91-1.714-.428c-.536.428-1.071.428-2.035,0a2.1,2.1,0,0,1-.357-3.663l2.761-2.184s.77-.574.87-.937c.151-.544-.678-1.54-1.715-1.972a3.877,3.877,0,0,1-1.2.231.806.806,0,0,1-.594-.485,1.372,1.372,0,0,1,1.289-.4c.867.136.98.443,1.749,1.021s1.041,1.584.786,1.975a3.509,3.509,0,0,1-.786.761,31.785,31.785,0,0,0-3.163,2.636c-.75,1.446-.232,2.376,1.214,2.376.75,0,1.018-.375,1.018-1.553,0-1.981,1.553-3.909,4.5-5.57,2.035-1.125,2.463-1.232,3.588-.589,1.981,1.125,4.872,1.018,6-.268.4-.706-.226-.857-1.194-1.108-2.731-.643-4.266-2.855-5.659-4.944l-1.392-2.089,1.66.857C175.626-115.421,176.376-114.725,176.376-114.35Zm-4.338,1.125a9.944,9.944,0,0,0,1.66,1.928l3.132,2.042s-.006.322-.7.192a14.913,14.913,0,0,1-2.084-.711,5.314,5.314,0,0,1-1.489.1c-.616-.086-1.418-.331-1.266-.469s1.449.2,1.874-.084c.643-.375.623-.474-.609-.527a6.108,6.108,0,0,1-1.423,0c-.6-.1-1.361-.324-1.188-.46s1.283.162,1.881-.084c.91-.375,1.11-.39-.282-.443a2.894,2.894,0,0,1-.9-.092c-.506-.134-2.109-.669-1.7-.644a12.106,12.106,0,0,0,2.081.109c.44-.093,1.285-.428-.321-.482a6.047,6.047,0,0,1-2.678-.8c-.326-.249-2.025-1.178-1.752-1.259s1.607.51,2.862.795,1.487.059,2.157.276S171.995-113.356,172.038-113.226Zm16.088-.616c-.054.268-.977.991-1.406,1.74a8.451,8.451,0,0,0-.7,2.945c0,1.446-1.339,3.749-2.2,3.749-.268,0-.482-.375-.482-.91,0-1.285,3.106-7.658,3.749-7.658C187.354-113.975,188.126-114.056,188.126-113.842Zm-9.876,5.65c-.161.161-.589,0-.964-.375a1.982,1.982,0,0,0-.682-.268.507.507,0,0,1,.393-.229c.251,0,.283.089.61.229C178.143-108.674,178.411-108.352,178.25-108.192Z" transform="translate(-164.126 120.865)" fill="#666"/>
        <path id="Path_2863" data-name="Path 2863" d="M175.776-86.524a1.978,1.978,0,0,0-.384,1.317c0,.494-.142.751-.416.861-.329.165-.48.219-.1.165a1.4,1.4,0,0,0,.789-.634c.111-.249.189-.129.171-.677a2.959,2.959,0,0,1,.437-1.283S176.154-86.9,175.776-86.524Z" transform="translate(-169.56 106.036)" fill="#666"/>
        <path id="Path_2864" data-name="Path 2864" d="M1.055.71A12.066,12.066,0,0,0,.39,2.6S-.6,8.9.578,9.181c-.174.04-.64-.1-.264-3.82a9.157,9.157,0,0,1,.93-3.6A8.137,8.137,0,0,1,2.24,0,4.326,4.326,0,0,0,1.055.71Z" transform="translate(7.043 6.849) rotate(-54)" fill="#666"/>
        <path id="Path_2863-2" data-name="Path 2863" d="M.242,1.372A1.685,1.685,0,0,1,0,.383C0,.012.1-.1.174.089A1.355,1.355,0,0,1,.4.345a.782.782,0,0,1,.1.27A3.281,3.281,0,0,1,.4,1.139C.333,1.328.481,1.656.242,1.372Z" transform="translate(15.514 2.868) rotate(-82)" fill="#fff"/>
      </g>
    </g>
  </g>
</svg>
