<svg xmlns="http://www.w3.org/2000/svg" width="50" height="50" viewBox="0 0 50 50">
  <g id="Group_3722" data-name="Group 3722" transform="translate(19915 9424)">
    <rect id="Rectangle_1107" data-name="Rectangle 1107" width="50" height="50" transform="translate(-19915 -9424)" fill="none"/>
    <g id="Group_3467" data-name="Group 3467" transform="translate(-1939 -7106)">
      <rect id="Rectangle_1105" data-name="Rectangle 1105" width="35" height="35" transform="translate(-17968 -2310)" fill="none"/>
      <g id="Group_3466" data-name="Group 3466" transform="translate(-17966.209 -2306.406)">
        <path id="Path_2862" data-name="Path 2862" d="M174.085-118.156c2.6.82,4.851,1.777,5.125,2.255,1.025,1.5.478,1.777-1.23.615a22.059,22.059,0,0,0-5.6-1.913c-2.665-.547-4.1-1.23-4.851-2.392-1.025-1.5-1.025-1.572.478-.752A52.16,52.16,0,0,0,174.085-118.156Zm12.163-.068c2.05,0,3.758.683,3.758,1.435,0,.342-.752.615-1.64.615-1.2,0-2.409,1.72-2.409,1.72s-.058.131-.753,0-1.488-.417-2.027-.522-.332.168-.332.168a10.579,10.579,0,0,1,2.765,1.335c.577.6.5.627.5.627a7.26,7.26,0,0,0,1.027,2.412c1.093,1.23,1.093,1.3-.2.752-.752-.273-2.392-.888-3.553-1.3-3.075-1.162-3.211-1.367-2.323-3.895.888-2.6,3.007-5.125,3.348-4.1C184.539-118.566,185.359-118.224,186.247-118.224Zm-16.058,2.187c0,.752-1.615.47-3.019-.265a5.993,5.993,0,0,1-2.594-2.673,10.416,10.416,0,0,1,1.855.82,9.05,9.05,0,0,0,1.367.41C169.1-117.131,170.19-116.379,170.19-116.038Zm-.068.752c1.23-.068,1.367.068.683.547-.752.478-.615.615.547.615.82,0,1.708.273,1.913.683.211.369.216.694-.888.843a7.774,7.774,0,0,1-3.826-.912,5.191,5.191,0,0,1-2.118-1.777c-.071-.214-.446-.611-.414-.888s.577.089,1.234.342A7.668,7.668,0,0,0,170.121-115.286Zm9.635,2.733c0,.82,3.143,2.528,6.628,3.553,1.845.547,2.6,2.8,1.708,5.125-.888,2.392,1.23,9.635,3.007,10.318,1.093.41,1.025.547-.615.547-1.23.068-2.05-.342-2.255-1.162-.273-.615-1.23-2.733-2.255-4.715-.713-1.426-1.39-3.28-1.39-3.28a10.389,10.389,0,0,1-.384,1.388,2.785,2.785,0,0,1-2.605,2.05c-1.712.174-5.013-1.087-5.013-1.087a5.756,5.756,0,0,1-.795-.494,4.47,4.47,0,0,0-1.537-.512s-.63-.107-.9.182c.043-.011.234-.219,1.132.117.371.159,2.52.959,2.755,1.676a1.937,1.937,0,0,1,0,1.873c-.509.871-2.2.919-3.018,1.982-1.5,1.845-.888,1.871,2.118,1.666a9.211,9.211,0,0,1,2.87.6c.235.171.144.192-.348.384a20,20,0,0,1-3.752.085c-1.518,0-3.091-.032-3.764-.085s-.224-.256-.427-.577a7.8,7.8,0,0,1-.387-.7s-1.435-1.162-2.187-.547c-.683.547-1.367.547-2.6,0a2.674,2.674,0,0,1-.456-4.674l3.523-2.787s.982-.732,1.11-1.2c.192-.694-.865-1.964-2.188-2.516a4.947,4.947,0,0,1-1.527.3,1.029,1.029,0,0,1-.758-.619,1.75,1.75,0,0,1,1.644-.512c1.106.174,1.25.566,2.232,1.3s1.329,2.021,1,2.52a4.477,4.477,0,0,1-1,.972,40.553,40.553,0,0,0-4.036,3.363c-.957,1.845-.3,3.032,1.549,3.032.957,0,1.3-.478,1.3-1.982,0-2.528,1.982-4.988,5.74-7.106,2.6-1.435,3.143-1.572,4.578-.752,2.528,1.435,6.216,1.3,7.651-.342.5-.9-.288-1.093-1.524-1.414-3.485-.82-5.443-3.643-7.22-6.308l-1.777-2.665,2.118,1.093C178.8-113.919,179.756-113.031,179.756-112.553Zm-5.535,1.435a12.689,12.689,0,0,0,2.118,2.46l4,2.605s-.008.411-.9.246a19.028,19.028,0,0,1-2.658-.908,6.78,6.78,0,0,1-1.9.128c-.786-.11-1.809-.422-1.615-.6s1.849.255,2.392-.107c.82-.478.795-.6-.777-.673a7.8,7.8,0,0,1-1.815,0c-.771-.127-1.737-.414-1.516-.587s1.638.207,2.4-.107c1.162-.478,1.416-.5-.36-.566a3.692,3.692,0,0,1-1.153-.117c-.645-.171-2.69-.854-2.167-.822a15.449,15.449,0,0,0,2.656.139c.561-.119,1.64-.547-.41-.615a7.716,7.716,0,0,1-3.417-1.025c-.416-.318-2.584-1.5-2.235-1.606s2.051.651,3.651,1.014,1.9.076,2.752.352S174.166-111.285,174.221-111.118Zm20.527-.786c-.068.342-1.247,1.264-1.794,2.221a10.783,10.783,0,0,0-.9,3.758c0,1.845-1.708,4.783-2.8,4.783-.342,0-.615-.478-.615-1.162,0-1.64,3.963-9.771,4.783-9.771C193.764-112.074,194.748-112.177,194.748-111.9Zm-12.6,7.209c-.205.2-.752,0-1.23-.478a2.531,2.531,0,0,0-.871-.342.647.647,0,0,1,.5-.293c.32,0,.361.114.779.293C182.011-105.31,182.352-104.9,182.147-104.695Z" transform="translate(-164.126 120.865)" fill="#fff"/>
        <path id="Path_2863" data-name="Path 2863" d="M176.086-86.449a2.524,2.524,0,0,0-.49,1.68c0,.63-.181.958-.531,1.1-.42.21-.612.28-.122.21a1.787,1.787,0,0,0,1.006-.809c.142-.317.241-.164.219-.864a3.775,3.775,0,0,1,.558-1.637S176.568-86.932,176.086-86.449Z" transform="translate(-168.154 111.345)" fill="#5f87a0"/>
        <path id="Path_2864" data-name="Path 2864" d="M1.346.906A15.4,15.4,0,0,0,.5,3.318s-1.265,8.039.24,8.4C.515,11.765-.079,11.583.4,6.84A11.684,11.684,0,0,1,1.587,2.251,10.382,10.382,0,0,1,2.858,0,5.519,5.519,0,0,0,1.346.906Z" transform="translate(8.986 8.739) rotate(-54)" fill="#fff"/>
        <path id="Path_2863-2" data-name="Path 2863" d="M.309,1.75A2.15,2.15,0,0,1,0,.489C0,.015.133-.124.223.114a1.728,1.728,0,0,1,.29.326A1,1,0,0,1,.644.786a4.186,4.186,0,0,1-.135.668C.425,1.694.614,2.113.309,1.75Z" transform="translate(19.795 3.66) rotate(-82)" fill="#5f87a0"/>
      </g>
    </g>
  </g>
</svg>
