<svg xmlns="http://www.w3.org/2000/svg" width="13.866" height="17.198" viewBox="0 0 13.866 17.198">
  <g id="istockphoto-1001154142-1024x1024" transform="translate(-208.895 880.831)">
    <path id="Path_2909" data-name="Path 2909" d="M211.061-880.7c-.62.009-.715.267-.815.552-.074.129.02,2.339,0,2.492l-.014.121-.292.01c-.284.01-.3.012-.431.08a.955.955,0,0,0-.4.378c-.121.24-.113-.225-.113,6.419,0,4.4.006,6.113.022,6.189a.921.921,0,0,0,.7.7c.139.028,9.347.032,9.5,0a.93.93,0,0,0,.435-.223,1.356,1.356,0,0,0,.292-.918v.062l.89-.163c.761-.136,1.589-.408,1.638-.584.121-.237.188.1.188-6.368,0-3.921-.006-5.956-.02-6.028.15-2.547-1.1-2.7-1.67-2.737s-.16,0-5.214,0C213.221-880.712,211.108-880.7,211.061-880.7Zm9.419.484c.61.023,1.732.264,1.627,2.3.018.06.044,1.466.044,5.965l-.026,5.811c-.1.3-.744.4-1.1.476l-1.054.15-.026-4.224v-4.434l-1.671-1.671-1.671-1.671-2.973-.01-2.741.01v-.079a13.515,13.515,0,0,1,.082-2.092.369.369,0,0,1,.353-.408c.053-.049,0-.055,4.455-.055Zm-4.179,4.651V-874l.048.056.048.056,1.568.01,1.566.01v4.66c0,3.895,0,4.672-.028,4.738a.554.554,0,0,1-.254.276c-.076.036-.276.038-4.76.038-3.029,0-4.706-.008-4.752-.02a.526.526,0,0,1-.278-.252l-.042-.093,0-6.111v-6.113l.052-.107a.56.56,0,0,1,.119-.157c.149-.115-.048-.109,3.47-.109l3.245,0Zm1.691.022,1.258,1.258-1.268,0-1.268-.006-.006-1.254c0-.688,0-1.252.01-1.252S217.3-876.231,217.992-875.539Z" transform="translate(0 0)" fill="#484848" stroke="#484848" stroke-width="0.2"/>
    <path id="Path_2910" data-name="Path 2910" d="M300.058-766.893a.457.457,0,0,0-.058.261.458.458,0,0,0,.058.262l.058.107h3.611l.058-.114a.574.574,0,0,0,0-.516l-.058-.107h-3.611Z" transform="translate(-89.442 -107.023)" fill="#484848" stroke="#484848" stroke-width="0.3"/>
    <path id="Path_2913" data-name="Path 2913" d="M271.237-476.6c-.157.07-.211.374-.1.593l.058.121h4.046c3.947,0,4.046,0,4.088-.07a.642.642,0,0,0-.022-.615c-.038-.04-.755-.048-4.022-.051C273.1-476.622,271.275-476.611,271.237-476.6Z" transform="translate(-60.833 -394.48)" fill="#484848" stroke="#484848" stroke-width="0.3"/>
    <path id="Path_2915" data-name="Path 2915" d="M271.308-323.868a.523.523,0,0,0-.07.581l.058.118,4.013,0c3.291,0,4.024,0,4.078-.043a.51.51,0,0,0,.006-.632c-.064-.057-.332-.061-4.056-.061C273.143-323.9,271.33-323.886,271.308-323.868Z" transform="translate(-60.936 -544.273)" fill="#484848" stroke="#484848" stroke-width="0.3"/>
  </g>
</svg>
