<svg id="play-button" xmlns="http://www.w3.org/2000/svg" width="25" height="25" viewBox="0 0 25 25">
  <path id="Path_1253" data-name="Path 1253" d="M31.818,20.323l-9.167-6.25a.416.416,0,0,0-.651.344v12.5a.416.416,0,0,0,.651.344l9.167-6.25a.416.416,0,0,0,0-.688Zm-8.985,5.805V15.206l8.01,5.461Z" transform="translate(-12.833 -8.167)" fill="#fff"/>
  <path id="Path_1254" data-name="Path 1254" d="M12.5,0A12.5,12.5,0,1,0,25,12.5,12.514,12.514,0,0,0,12.5,0Zm0,24.167A11.667,11.667,0,1,1,24.167,12.5,11.68,11.68,0,0,1,12.5,24.167Z" fill="#fff"/>
</svg>
