<svg xmlns="http://www.w3.org/2000/svg" width="29" height="29" viewBox="0 0 29 29">
  <g id="Group_3" data-name="Group 3" transform="translate(-234 -242)">
    <g id="Rectangle_1470" data-name="Rectangle 1470" transform="translate(234 242)" fill="#fff" stroke="#e6e6e6" stroke-width="1">
      <rect width="29" height="29" rx="5" stroke="none"/>
      <rect x="0.5" y="0.5" width="28" height="28" rx="4.5" fill="none"/>
    </g>
    <g id="icons8-pinterest" transform="translate(236 244)">
      <path id="Path_5" data-name="Path 5" d="M12.5,3A9.5,9.5,0,1,0,22,12.5,9.5,9.5,0,0,0,12.5,3Z" fill="#666"/>
      <path id="Path_6" data-name="Path 6" d="M13.816,25.959a8.891,8.891,0,0,1,.032-2.663c.169-.724,1.089-4.615,1.089-4.615a3.351,3.351,0,0,1-.278-1.378c0-1.291.748-2.255,1.68-2.255a1.166,1.166,0,0,1,1.174,1.308,18.614,18.614,0,0,1-.769,3.091,1.348,1.348,0,0,0,1.375,1.678c1.65,0,2.918-1.74,2.918-4.251A3.665,3.665,0,0,0,17.16,13.1a4.019,4.019,0,0,0-4.192,4.029,3.612,3.612,0,0,0,.691,2.119.278.278,0,0,1,.064.266c-.07.293-.227.924-.258,1.053-.04.17-.135.206-.31.124a4.161,4.161,0,0,1-1.885-3.6c0-2.928,2.127-5.618,6.135-5.618a5.448,5.448,0,0,1,5.724,5.362c0,3.2-2.018,5.775-4.818,5.775a2.483,2.483,0,0,1-2.127-1.066s-.466,1.773-.579,2.207a10.344,10.344,0,0,1-1.154,2.434C14.3,26.291,13.858,26.227,13.816,25.959Z" transform="translate(-4.699 -4.814)" fill="#fff"/>
    </g>
  </g>
</svg>
