<svg id="Relationship_Search" data-name="Relationship Search" xmlns="http://www.w3.org/2000/svg" width="48" height="48" viewBox="0 0 48 48">
  <rect id="Rectangle_1107" data-name="Rectangle 1107" width="48" height="48" fill="none"/>
  <g id="Group_4471" data-name="Group 4471" transform="translate(-3299 237)">
    <rect id="Rectangle_1474" data-name="Rectangle 1474" width="36" height="36" transform="translate(3305 -231)" fill="none"/>
    <path id="travel_explore_FILL0_wght400_GRAD0_opsz48" d="M13.3,23.656a9.461,9.461,0,0,1-3.641-.91,9.994,9.994,0,0,1-2.952-2.128,9.9,9.9,0,0,1-1.98-3.063A9.88,9.88,0,0,1,4.775,10,9.825,9.825,0,0,1,10,4.775,9.582,9.582,0,0,1,13.84,4a9.5,9.5,0,0,1,6.371,2.312,9.615,9.615,0,0,1,3.321,5.806h-1.5a8.36,8.36,0,0,0-1.747-3.69,8.227,8.227,0,0,0-3.321-2.435v.443a2.141,2.141,0,0,1-.59,1.5,1.9,1.9,0,0,1-1.451.64h-2.14v2.14a.85.85,0,0,1-.332.689,1.156,1.156,0,0,1-.75.271H9.658V13.84h2.706v3.075H10.716L5.7,11.9a6.912,6.912,0,0,0-.172.972,9.518,9.518,0,0,0-.049.972,8.137,8.137,0,0,0,2.239,5.732A7.984,7.984,0,0,0,13.3,22.18Zm9.643-.64-3.3-3.3a4.109,4.109,0,0,1-1.119.566,3.977,3.977,0,0,1-1.242.2A4.158,4.158,0,0,1,13.1,16.3a4.158,4.158,0,0,1,4.182-4.182A4.158,4.158,0,0,1,21.466,16.3a3.764,3.764,0,0,1-.209,1.242,5.453,5.453,0,0,1-.554,1.144L24,21.958Zm-5.658-4.01A2.714,2.714,0,0,0,19.2,14.381a2.714,2.714,0,0,0-3.838,3.838A2.611,2.611,0,0,0,17.284,19.006Z" transform="translate(3309 -227)" fill="#666"/>
  </g>
</svg>
