<svg xmlns="http://www.w3.org/2000/svg" width="29" height="29" viewBox="0 0 29 29">
  <g id="Group_7" data-name="Group 7" transform="translate(-269 -242)">
    <g id="Rectangle_1470" data-name="Rectangle 1470" transform="translate(269 242)" fill="#fff" stroke="#e6e6e6" stroke-width="1">
      <rect width="29" height="29" rx="5" stroke="none"/>
      <rect x="0.5" y="0.5" width="28" height="28" rx="4.5" fill="none"/>
    </g>
    <path id="icons8-twitter" d="M22,8.5a8.651,8.651,0,0,1-2.475.679,4.324,4.324,0,0,0,1.9-2.384,8.644,8.644,0,0,1-2.737,1.045,4.311,4.311,0,0,0-7.341,3.929,12.236,12.236,0,0,1-8.881-4.5A4.316,4.316,0,0,0,3.8,13.019a4.286,4.286,0,0,1-1.951-.539v.055A4.312,4.312,0,0,0,5.3,16.759a4.3,4.3,0,0,1-1.946.074,4.318,4.318,0,0,0,4.026,2.993,8.64,8.64,0,0,1-5.351,1.843A8.547,8.547,0,0,1,1,21.609a12.189,12.189,0,0,0,6.6,1.936,12.176,12.176,0,0,0,12.26-12.257c0-.188,0-.375-.013-.558A8.756,8.756,0,0,0,22,8.5Z" transform="translate(271.999 242.489)" fill="#666"/>
  </g>
</svg>
