<svg xmlns="http://www.w3.org/2000/svg" width="16" height="16" viewBox="0 0 16 16">
  <path id="check_circle_FILL0_wght400_GRAD0_opsz48" d="M10.82,15.64l5.66-5.66-.92-.9-4.74,4.74-2.4-2.4-.9.9ZM12,20a7.741,7.741,0,0,1-3.1-.63A8.06,8.06,0,0,1,4.63,15.1a7.991,7.991,0,0,1,0-6.22A8,8,0,0,1,6.35,6.34,8.2,8.2,0,0,1,8.9,4.63a7.991,7.991,0,0,1,6.22,0,7.987,7.987,0,0,1,4.25,4.25,7.991,7.991,0,0,1,0,6.22,8.2,8.2,0,0,1-1.71,2.55,8,8,0,0,1-2.54,1.72A7.79,7.79,0,0,1,12,20Zm0-1.2a6.543,6.543,0,0,0,4.82-1.99A6.57,6.57,0,0,0,18.8,12a6.56,6.56,0,0,0-1.98-4.82A6.56,6.56,0,0,0,12,5.2,6.57,6.57,0,0,0,7.19,7.18,6.543,6.543,0,0,0,5.2,12a6.553,6.553,0,0,0,1.99,4.81A6.553,6.553,0,0,0,12,18.8ZM12,12Z" transform="translate(-4 -4)" fill="#389101"/>
</svg>
