<svg xmlns="http://www.w3.org/2000/svg" width="36" height="36" viewBox="0 0 36 36">
  <g id="Group_4353" data-name="Group 4353" transform="translate(-17636 -4990)">
    <rect id="Rectangle_1427" data-name="Rectangle 1427" width="36" height="36" rx="18" transform="translate(17636 4990)" fill="none"/>
    <path id="search_FILL0_wght400_GRAD0_opsz48" d="M22.732,23.95l-4.825-4.819A6.352,6.352,0,0,1,15.888,20.3a7.132,7.132,0,0,1-2.45.418,7.176,7.176,0,0,1-5.276-2.163A7.115,7.115,0,0,1,6,13.334a7.115,7.115,0,0,1,2.162-5.22A7.142,7.142,0,0,1,13.409,5.95a7.061,7.061,0,0,1,5.2,2.163,7.384,7.384,0,0,1,1.744,7.614,7.322,7.322,0,0,1-1.211,2.163L24,22.681Zm-9.323-4.963a5.394,5.394,0,0,0,3.978-1.658,5.47,5.47,0,0,0,1.643-3.995,5.47,5.47,0,0,0-1.643-3.995,5.394,5.394,0,0,0-3.978-1.658A5.475,5.475,0,0,0,9.387,9.339,5.446,5.446,0,0,0,7.73,13.334a5.446,5.446,0,0,0,1.658,3.995,5.475,5.475,0,0,0,4.022,1.658Z" transform="translate(17639 4993.05)" fill="#fff"/>
  </g>
</svg>
