<svg xmlns="http://www.w3.org/2000/svg" width="36" height="36" viewBox="0 0 36 36">
  <g id="Group_4470" data-name="Group 4470" transform="translate(-3217 101)">
    <rect id="Rectangle_1473" data-name="Rectangle 1473" width="36" height="36" transform="translate(3217 -101)" fill="none"/>
    <path id="person_search_FILL0_wght400_GRAD0_opsz48_1_" data-name="person_search_FILL0_wght400_GRAD0_opsz48 (1)" d="M14.612,16.049a4.031,4.031,0,0,1-4.051-4.024A4.008,4.008,0,0,1,14.585,8a3.985,3.985,0,0,1,4.024,4,3.931,3.931,0,0,1-1.167,2.871A3.832,3.832,0,0,1,14.612,16.049Zm-.027-1.61a2.311,2.311,0,0,0,1.717-.711,2.446,2.446,0,0,0,0-3.421,2.3,2.3,0,0,0-1.69-.7,2.378,2.378,0,0,0-1.73.7A2.28,2.28,0,0,0,12.171,12a2.355,2.355,0,0,0,.711,1.73A2.324,2.324,0,0,0,14.585,14.439ZM26.873,28.927l-3.756-3.756a3.769,3.769,0,0,1-1.274.63,5.261,5.261,0,0,1-1.355.174,4.535,4.535,0,0,1-4.561-4.561,4.535,4.535,0,0,1,4.561-4.561,4.535,4.535,0,0,1,4.561,4.561,5.261,5.261,0,0,1-.174,1.355,3.769,3.769,0,0,1-.63,1.274L28,27.8Zm-6.385-4.561a2.888,2.888,0,1,0-2.106-.845A2.858,2.858,0,0,0,20.488,24.366ZM6,25.171V22.649a2.956,2.956,0,0,1,.47-1.69A3.542,3.542,0,0,1,7.824,19.8a18.911,18.911,0,0,1,3.287-1.167,12.548,12.548,0,0,1,4.118-.416,6.792,6.792,0,0,0-.4.765,5.323,5.323,0,0,0-.3.818,11.019,11.019,0,0,0-3.649.5,19.656,19.656,0,0,0-2.415.952,1.814,1.814,0,0,0-.617.577,1.442,1.442,0,0,0-.241.818v.912h6.922q.3.456.537.845a8.456,8.456,0,0,0,.537.765ZM14.585,12.024ZM14.532,23.561Z" transform="translate(3218 -101)" fill="#666"/>
  </g>
</svg>
