<svg xmlns="http://www.w3.org/2000/svg" width="36" height="36" viewBox="0 0 36 36">
  <g id="Group_4588" data-name="Group 4588" transform="translate(-62 -394)">
    <rect id="Rectangle_1499" data-name="Rectangle 1499" width="36" height="36" rx="3" transform="translate(62 394)" fill="#8751f2"/>
    <path id="event_available_FILL0_wght400_GRAD0_opsz48" d="M13.568,19.766l-3.337-3.313,1.016-1.016,2.321,2.273,4.449-4.449,1.016,1.04ZM7.451,23.344A1.488,1.488,0,0,1,6,21.893V6.9A1.488,1.488,0,0,1,7.451,5.451H9.023V4h1.572V5.451h8.221V4h1.572V5.451h1.572A1.488,1.488,0,0,1,23.41,6.9V21.893a1.488,1.488,0,0,1-1.451,1.451Zm0-1.451H21.959V11.5H7.451Zm0-11.848H21.959V6.9H7.451Zm0,0v0Z" transform="translate(65.295 398.328)" fill="#fff"/>
  </g>
</svg>
