<svg xmlns="http://www.w3.org/2000/svg" width="36" height="36" viewBox="0 0 36 36">
  <g id="Group_4588" data-name="Group 4588" transform="translate(-62 -394)">
    <rect id="Rectangle_1499" data-name="Rectangle 1499" width="36" height="36" rx="3" transform="translate(62 394)" fill="#21a366"/>
    <g id="icons8-microsoft-excel" transform="translate(69 400.788)">
      <path id="Path_5699" data-name="Path 5699" d="M11.431,23.636,10.06,21.045a2.265,2.265,0,0,1-.161-.533H9.877a4.043,4.043,0,0,1-.183.555L8.318,23.636H6.182l2.536-3.978L6.4,15.679H8.579l1.137,2.386a4.09,4.09,0,0,1,.239.671h.021q.066-.233.25-.694l1.265-2.364h2L11.1,19.624l2.453,4.011H11.431Z" transform="translate(-2.977 -8.433)" fill="#fff"/>
      <path id="Path_5700" data-name="Path 5700" d="M29,22.319h7.66a.426.426,0,0,0,.426-.426V7.426A.426.426,0,0,0,36.66,7H29" transform="translate(-16.085 -3.447)" fill="none" stroke="#fff" stroke-linecap="round" stroke-linejoin="round" stroke-miterlimit="10" stroke-width="1"/>
      <path id="Path_5701" data-name="Path 5701" d="M29,23.362h2.128m.851,0h3.4M29,19.957h2.128m.851,0h3.4M29,16.979h2.128m.851,0h3.4M29,14h2.128m.851,0h3.4" transform="translate(-16.085 -7.468)" fill="none" stroke="#fff" stroke-linejoin="round" stroke-miterlimit="10" stroke-width="1"/>
      <path id="Path_5702" data-name="Path 5702" d="M1,3.269V19.156l11.915,2.269V1Z" fill="none" stroke="#fff" stroke-linecap="round" stroke-linejoin="round" stroke-miterlimit="10" stroke-width="1"/>
    </g>
  </g>
</svg>
