<svg xmlns="http://www.w3.org/2000/svg" width="26" height="26" viewBox="0 0 26 26">
  <g id="icon-tumbler" transform="translate(-374 -242)">
    <rect id="Rectangle_1471" data-name="Rectangle 1471" width="26" height="26" rx="5" transform="translate(374 242)" fill="#395976"/>
    <path id="Path_8" data-name="Path 8" d="M22.986,23.855a.207.207,0,0,1-.069.155c-.054.047-1.352,1.158-4.332,1.158-3.573,0-3.682-3.986-3.682-4.44V15.662l-1.7,0a.2.2,0,0,1-.2-.2V13.665a.206.206,0,0,1,.13-.191c.032-.012,3.227-1.253,3.227-4.269a.2.2,0,0,1,.2-.2h1.943a.2.2,0,0,1,.2.2l0,3.6h3.12a.21.21,0,0,1,.2.211v2.429a.212.212,0,0,1-.2.213h-3.12v4.994A1.576,1.576,0,0,0,20.339,22.2a4.97,4.97,0,0,0,2.334-.657.2.2,0,0,1,.207-.005.2.2,0,0,1,.106.179Z" transform="translate(369.343 238.2)" fill="#fff"/>
  </g>
</svg>
