<svg xmlns="http://www.w3.org/2000/svg" xmlns:xlink="http://www.w3.org/1999/xlink" width="40" height="40" viewBox="0 0 40 40">
  <defs>
    <clipPath id="clip-path">
      <circle id="_8" data-name="8" cx="20" cy="20" r="20" transform="translate(56 12)" fill="#bdbdbd" stroke="#bebebe" stroke-width="4"/>
    </clipPath>
  </defs>
  <g id="Group_1778" data-name="Group 1778" transform="translate(-220.23 6)">
    <g id="Group_1767" data-name="Group 1767" transform="translate(1)">
      <g id="Ellipse_401" data-name="Ellipse 401" transform="translate(219.23 -6)" fill="#fff" stroke="#bebebe" stroke-width="1">
        <circle cx="20" cy="20" r="20" stroke="none"/>
        <circle cx="20" cy="20" r="19.5" fill="none"/>
      </g>
      <g id="Mask_Group_9" data-name="Mask Group 9" transform="translate(163.23 -18)" clip-path="url(#clip-path)">
        <path id="user" d="M40,20A20,20,0,1,0,6.492,34.733l-.019.017.649.547c.042.036.088.065.13.1.345.286.7.557,1.065.82.118.085.236.17.356.253q.583.4,1.194.762c.089.052.178.1.268.154.446.254.9.493,1.367.713l.1.047a19.82,19.82,0,0,0,4.837,1.531l.134.024c.527.091,1.059.164,1.6.212l.2.015C18.908,39.972,19.45,40,20,40s1.082-.028,1.616-.071l.2-.015q.8-.073,1.584-.209l.136-.025a19.819,19.819,0,0,0,4.769-1.495c.055-.025.111-.049.167-.076q.673-.316,1.317-.681.16-.091.319-.184c.391-.231.776-.471,1.15-.727.135-.092.266-.188.4-.284.319-.23.633-.467.937-.715.068-.055.14-.1.207-.158l.665-.556-.02-.017A19.948,19.948,0,0,0,40,20ZM1.455,20A18.545,18.545,0,1,1,32.3,33.864a5.45,5.45,0,0,0-.649-.391l-6.158-3.079a1.612,1.612,0,0,1-.9-1.449V26.795c.143-.176.293-.375.449-.594a14.82,14.82,0,0,0,1.9-3.726,2.639,2.639,0,0,0,1.516-2.392V17.5a2.646,2.646,0,0,0-.645-1.723V12.388a5.865,5.865,0,0,0-1.369-4.265c-1.34-1.53-3.51-2.3-6.449-2.3s-5.108.775-6.449,2.3a5.867,5.867,0,0,0-1.369,4.265v3.394a2.65,2.65,0,0,0-.645,1.723v2.578a2.646,2.646,0,0,0,.975,2.052,13.666,13.666,0,0,0,2.249,4.647v2.1a1.622,1.622,0,0,1-.845,1.424L8.165,33.446a5.255,5.255,0,0,0-.547.346A18.5,18.5,0,0,1,1.455,20Z" transform="translate(56 12)" fill="#bdbdbd"/>
      </g>
    </g>
  </g>
</svg>
