<svg xmlns="http://www.w3.org/2000/svg" width="36" height="36" viewBox="0 0 36 36">
  <g id="Group_4588" data-name="Group 4588" transform="translate(-62 -394)">
    <rect id="Rectangle_1499" data-name="Rectangle 1499" width="36" height="36" rx="3" transform="translate(62 394)" fill="#ee8e04"/>
    <path id="update_FILL0_wght400_GRAD0_opsz48" d="M14.571,23a8.307,8.307,0,0,1-3.329-.673A8.789,8.789,0,0,1,8.515,20.5a8.546,8.546,0,0,1-1.842-2.715A8.307,8.307,0,0,1,6,14.453a8.14,8.14,0,0,1,.673-3.306,8.479,8.479,0,0,1,1.842-2.68,8.724,8.724,0,0,1,2.727-1.806A8.435,8.435,0,0,1,14.571,6a8.031,8.031,0,0,1,3.577.826,8.985,8.985,0,0,1,2.916,2.267V6.59h1.417V11.5H17.546V10.085h2.479a8.21,8.21,0,0,0-2.444-1.936,6.421,6.421,0,0,0-3.01-.732A7.033,7.033,0,0,0,9.518,9.435a6.594,6.594,0,0,0-2.1,4.947,6.984,6.984,0,0,0,2.078,5.1,6.866,6.866,0,0,0,5.076,2.1,6.7,6.7,0,0,0,4.982-2.078,6.931,6.931,0,0,0,2.031-5.029H23a8.277,8.277,0,0,1-2.456,6.033A8.073,8.073,0,0,1,14.571,23Zm2.881-4.651L13.815,14.76V9.707h1.417v4.463l3.235,3.164Z" transform="translate(66 399)" fill="#fff"/>
  </g>
</svg>
