<svg xmlns="http://www.w3.org/2000/svg" width="10" height="8" viewBox="0 0 10 8">
  <g id="Icon" transform="translate(0)">
    <path id="Path_2942" data-name="Path 2942" d="M40.816,206.631l3.56-3.561a.44.44,0,0,1,.622,0l.415.415a.439.439,0,0,1,0,.621l-2.822,2.835,2.822,2.835a.439.439,0,0,1,0,.621l-.415.416a.44.44,0,0,1-.622,0l-3.56-3.561A.439.439,0,0,1,40.816,206.631Z" transform="translate(-40.688 -202.942)" fill="#666"/>
    <path id="Path_2943" data-name="Path 2943" d="M40.816,206.631l3.56-3.561a.44.44,0,0,1,.622,0l.415.415a.439.439,0,0,1,0,.621l-2.822,2.835,2.822,2.835a.439.439,0,0,1,0,.621l-.415.416a.44.44,0,0,1-.622,0l-3.56-3.561A.439.439,0,0,1,40.816,206.631Z" transform="translate(-35.543 -202.942)" fill="#666"/>
  </g>
</svg>
