<svg xmlns="http://www.w3.org/2000/svg" width="18" height="18" viewBox="0 0 18 18">
  <g id="Group_3148" data-name="Group 3148" transform="translate(-1201 -315)">
    <g id="edit" transform="translate(1203.383 317.382)">
      <path id="Path_1354" data-name="Path 1354" d="M121.11.895a2.166,2.166,0,0,0-3.062,0l-8.586,8.586a.482.482,0,0,0-.129.211L108.2,13.768a.481.481,0,0,0,.593.593l4.076-1.13a.48.48,0,0,0,.211-.129l8.586-8.586a2.168,2.168,0,0,0,0-3.062Zm-10.6,8.9,7.027-7.027L119.8,5.033l-7.022,7.027Zm-.452.908,1.81,1.811-2.5.694ZM121,3.842l-.515.515-2.266-2.266.515-.515a1.2,1.2,0,0,1,1.7,0l.566.564a1.2,1.2,0,0,1,0,1.7Zm0,0" transform="translate(-108.186 -0.261)" fill="#23283c"/>
    </g>
    <rect id="Rectangle_154" data-name="Rectangle 154" width="18" height="18" transform="translate(1201 315)" fill="none"/>
  </g>
</svg>
