<svg xmlns="http://www.w3.org/2000/svg" width="32" height="32" viewBox="0 0 32 32">
  <g id="favicon" transform="translate(-2633 -5651)">
    <rect id="Rectangle_1505" data-name="Rectangle 1505" width="32" height="32" transform="translate(2633 5651)" fill="none"/>
    <path id="Fill-4" d="M.785,32a.673.673,0,0,1-.544-.366V31.45s1.027-.122,1.389-.183c.724-.183,1.207-1.039,1.386-2.076.182-1.588.182-4.458.182-8V14.657c0-5.74,0-10.688-.121-11.909C3.016,1.527,2.714.916,1.508.672,1.267.611.3.55.3.55L0,.367.061,0s4.7.184,4.886.184S9.412,0,9.412,0V.367L9.169.55S8.385.611,7.964.672c-1.086.183-1.388.793-1.448,2.076-.06,1.221-.06,6.168-.06,11.909v6.6c0,5.434.181,7.45.784,8.183.664.732,4.767.916,8.928.977H17.5c4.163,0,5.127-.733,5.912-1.832a4.616,4.616,0,0,0,.784-1.955,1.209,1.209,0,0,1,.362-.55h.422s-.663,4.092-.9,5.008c-.181.855-.241.916-1.146.916H.785" transform="translate(2637 5651)" fill="#23283c" fill-rule="evenodd"/>
  </g>
</svg>
