<svg xmlns="http://www.w3.org/2000/svg" xmlns:xlink="http://www.w3.org/1999/xlink" width="30.625" height="35.984" viewBox="0 0 30.625 35.984">
  <defs>
    <linearGradient id="linear-gradient" x1="0.5" x2="0.5" y2="1" gradientUnits="objectBoundingBox">
      <stop offset="0" stop-color="#d7ddde"/>
      <stop offset="1" stop-color="#c2c8d0"/>
    </linearGradient>
  </defs>
  <g id="Group_38" data-name="Group 38" transform="translate(-722 -28)">
    <path id="Path_280" data-name="Path 280" d="M723.5,37.961V54.167l14.1,8.55,14.419-8.55V37.961L737.6,29.667Z" transform="translate(-0.352 -0.391)" stroke="#707070" stroke-width="1" fill="url(#linear-gradient)"/>
    <path id="Path_281" data-name="Path 281" d="M723.5,53.995h28.456L737.664,29.75Z" transform="translate(-0.352 -0.41)" fill="none" stroke="#666c7c" stroke-width="1"/>
    <path id="Path_282" data-name="Path 282" d="M739.915,29.75l-7.082,12.186H747Z" transform="translate(-2.539 -0.41)" fill="#e6b43b" stroke="#666c7c" stroke-width="1"/>
    <path id="Path_283" data-name="Path 283" d="M732.833,45.667l7.018,12.122v8.8" transform="translate(-2.539 -4.141)" fill="none" stroke="#666c7c" stroke-width="1"/>
    <path id="Path_284" data-name="Path 284" d="M739.979,45.667l-7.146,12.122v8.8" transform="translate(4.479 -4.141)" fill="none" stroke="#666c7c" stroke-width="1"/>
    <line id="Line_1" data-name="Line 1" x2="6.891" y2="3.828" transform="translate(723.148 37.57)" fill="none" stroke="#666c7c" stroke-width="1"/>
    <line id="Line_2" data-name="Line 2" x1="6.891" y2="3.828" transform="translate(744.586 37.57)" fill="none" stroke="#666c7c" stroke-width="1"/>
    <ellipse id="Ellipse_30" data-name="Ellipse 30" cx="1.148" cy="1.148" rx="1.148" ry="1.148" transform="translate(736.164 28)" fill="rgba(34,42,59,0.8)"/>
    <ellipse id="Ellipse_31" data-name="Ellipse 31" cx="1.148" cy="1.148" rx="1.148" ry="1.148" transform="translate(750.328 36.422)" fill="rgba(34,42,59,0.8)"/>
    <ellipse id="Ellipse_32" data-name="Ellipse 32" cx="1.148" cy="1.148" rx="1.148" ry="1.148" transform="translate(750.328 52.5)" fill="rgba(34,42,59,0.8)"/>
    <ellipse id="Ellipse_33" data-name="Ellipse 33" cx="1.148" cy="1.148" rx="1.148" ry="1.148" transform="translate(722 52.5)" fill="rgba(34,42,59,0.8)"/>
    <ellipse id="Ellipse_34" data-name="Ellipse 34" cx="1.148" cy="1.148" rx="1.148" ry="1.148" transform="translate(722 36.422)" fill="rgba(34,42,59,0.8)"/>
    <ellipse id="Ellipse_35" data-name="Ellipse 35" cx="1.148" cy="1.148" rx="1.148" ry="1.148" transform="translate(736.164 61.688)" fill="rgba(34,42,59,0.8)"/>
  </g>
</svg>
