<svg xmlns="http://www.w3.org/2000/svg" width="30" height="30" viewBox="0 0 30 30">
  <g id="icon-edit-cancel" transform="translate(-518 -537)">
    <rect id="Rectangle_1498" data-name="Rectangle 1498" width="30" height="30" transform="translate(518 537)" fill="none"/>
    <path id="edit_off_FILL1_wght400_GRAD0_opsz48" d="M21.163,24.1l-7.138-7.138L7.948,23.039H4.861V19.952l6.077-6.077L3.8,6.737,4.813,5.724,22.176,23.087Zm-5.112-9.164L12.964,11.85,17.015,7.8,20.1,10.885Zm5.064-5.064L18.028,6.785l1.013-1.013a1.351,1.351,0,0,1,1.025-.4,1.433,1.433,0,0,1,1.025.422l1.037,1.037a1.4,1.4,0,0,1,.422,1,1.36,1.36,0,0,1-.422,1.025Z" transform="translate(519.825 537.263)" fill="#666"/>
  </g>
</svg>
