<svg xmlns="http://www.w3.org/2000/svg" width="30" height="30" viewBox="0 0 30 30">
  <g id="icon-save" transform="translate(-469 -537)">
    <path id="check_circle_FILL0_wght400_GRAD0_opsz48" d="M11.673,17.1l6.368-6.368L17.005,9.715l-5.333,5.333-2.7-2.7L7.96,13.36ZM13,22a8.708,8.708,0,0,1-3.488-.709,9.068,9.068,0,0,1-4.8-4.8,8.99,8.99,0,0,1,0-7A8.994,8.994,0,0,1,6.644,6.633,9.226,9.226,0,0,1,9.513,4.709a8.99,8.99,0,0,1,7,0A8.986,8.986,0,0,1,21.291,9.49a8.99,8.99,0,0,1,0,7,9.226,9.226,0,0,1-1.924,2.869,8.994,8.994,0,0,1-2.858,1.935A8.764,8.764,0,0,1,13,22Zm0-1.35a7.361,7.361,0,0,0,5.423-2.239A7.391,7.391,0,0,0,20.65,13a7.38,7.38,0,0,0-2.228-5.423A7.38,7.38,0,0,0,13,5.35,7.391,7.391,0,0,0,7.589,7.578,7.361,7.361,0,0,0,5.35,13a7.372,7.372,0,0,0,2.239,5.411A7.372,7.372,0,0,0,13,20.65ZM13,13Z" transform="translate(471 539)" fill="#666"/>
    <rect id="Rectangle_1497" data-name="Rectangle 1497" width="30" height="30" transform="translate(469 537)" fill="none"/>
  </g>
</svg>
