<svg id="menu" xmlns="http://www.w3.org/2000/svg" width="18.25" height="13.18" viewBox="0 0 18.25 13.18">
  <path id="Path_1316" data-name="Path 1316" d="M17.49,124.189H.76a.76.76,0,0,1,0-1.521H17.49a.76.76,0,0,1,0,1.521Zm0,0" transform="translate(0 -116.838)" fill="#fff"/>
  <path id="Path_1317" data-name="Path 1317" d="M17.49,1.521H.76A.76.76,0,0,1,.76,0H17.49a.76.76,0,0,1,0,1.521Zm0,0" fill="#fff"/>
  <path id="Path_1318" data-name="Path 1318" d="M17.49,246.853H.76a.76.76,0,1,1,0-1.521H17.49a.76.76,0,1,1,0,1.521Zm0,0" transform="translate(0 -233.672)" fill="#fff"/>
</svg>
