<svg xmlns="http://www.w3.org/2000/svg" width="18" height="16.215" viewBox="0 0 18 16.215">
  <g id="_457-4573459_register-now-landscape-paper-icon-clipart" data-name="457-4573459_register-now-landscape-paper-icon-clipart" transform="translate(0 0)">
    <path id="Path_1510" data-name="Path 1510" d="M235.634-757.966a2.1,2.1,0,0,0-.909.425,2.08,2.08,0,0,0-.685,1.124,7.572,7.572,0,0,0-.045,1.436c0,1.384-.011,1.3.185,1.357a.647.647,0,0,0,.559-.063c.043-.048.045-.081.052-1.271l.007-1.221.063-.179a1.206,1.206,0,0,1,.828-.791,27.1,27.1,0,0,1,2.822-.036h2.7v1.8c0,1.135.009,1.875.025,1.995a2.035,2.035,0,0,0,1.49,1.7,11.109,11.109,0,0,0,2.155.057l1.983.007v3.962c0,3.315-.007,3.987-.032,4.111a1.24,1.24,0,0,1-.789.9l-.163.059-3.584.011c-2.784.009-3.6.018-3.634.038a.536.536,0,0,0-.029.69l.063.063H242.3c3.958,0,3.743.007,4.1-.136a2.082,2.082,0,0,0,1.115-1.117c.145-.357.136-.068.133-4.837l0-4.347-2.931-2.89L241.788-758l-3,0C236.43-758,235.759-757.989,235.634-757.966Zm8.94,4.057c.674.667,1.226,1.219,1.226,1.228s-.588.018-1.3.018c-1.441,0-1.5,0-1.748-.138a1.081,1.081,0,0,1-.52-.719c-.014-.075-.023-.631-.023-1.422v-1.3l.572.563C243.088-755.372,243.9-754.574,244.574-753.909Z" transform="translate(-229.653 758)" fill="#484848"/>
    <path id="Path_1511" data-name="Path 1511" d="M149.6-533.839a.418.418,0,0,0-.265.511,12.654,12.654,0,0,0,1.658,1.734c.911.914,1.669,1.655,1.716,1.68a.437.437,0,0,0,.5-.084.431.431,0,0,0,.066-.479c-.025-.047-.767-.8-1.68-1.716a15.947,15.947,0,0,0-1.725-1.655A.351.351,0,0,0,149.6-533.839Z" transform="translate(-146.888 538.939)" fill="#484848"/>
    <path id="Path_1512" data-name="Path 1512" d="M42.439-524.78a.651.651,0,0,0-.439.586.644.644,0,0,0,.249.527c.167.172.235.208.308.158a2.068,2.068,0,0,0,.154-.215,1.117,1.117,0,0,1,.432-.407c.106-.054.17-.124.17-.188s-.233-.321-.389-.4A.752.752,0,0,0,42.439-524.78Z" transform="translate(-42 530.072)" fill="#484848"/>
    <path id="Path_1513" data-name="Path 1513" d="M77.289-486.846a1.112,1.112,0,0,0-.529.326,1.043,1.043,0,0,0-.337.939c.052.335.063.351.914,1.208.425.427.8.792.832.81a.273.273,0,0,0,.274-.014,2,2,0,0,0,.21-.256,3.592,3.592,0,0,1,.773-.776c.33-.246.394-.348.312-.5-.018-.034-.382-.407-.81-.832-.814-.807-.871-.853-1.128-.911A1.257,1.257,0,0,0,77.289-486.846Z" transform="translate(-75.631 493.009)" fill="#484848"/>
    <path id="Path_1514" data-name="Path 1514" d="M434.724-387.958a.48.48,0,0,0-.158.129c-.059.075-.066.1-.066.247s.007.172.066.246a.48.48,0,0,0,.158.129,20.245,20.245,0,0,0,2.972.043c3.089,0,2.963,0,3.087-.109a.445.445,0,0,0,0-.62c-.124-.113,0-.109-3.087-.109A20.231,20.231,0,0,0,434.724-387.958Z" transform="translate(-425.624 396.369)" fill="#484848"/>
    <path id="Path_1515" data-name="Path 1515" d="M184.335-379.929a4.239,4.239,0,0,0-.593.536,2.876,2.876,0,0,0-.547.613.393.393,0,0,0-.016.373c.066.14,3.053,3.11,3.2,3.184a.832.832,0,0,0,1.1-.149.606.606,0,0,1,.271-.276.616.616,0,0,0,.285-.364.894.894,0,0,0-.086-.665,12.3,12.3,0,0,0-1.6-1.68c-.853-.855-1.565-1.554-1.612-1.578A.466.466,0,0,0,184.335-379.929Z" transform="translate(-179.947 388.527)" fill="#484848"/>
    <path id="Path_1516" data-name="Path 1516" d="M434.309-255.958a.5.5,0,0,0-.158.127.445.445,0,0,0,.052.559c.124.113,0,.109,3.082.109s2.958,0,3.082-.109a.445.445,0,0,0,0-.62c-.124-.113,0-.109-3.087-.109A20.23,20.23,0,0,0,434.309-255.958Z" transform="translate(-425.209 267.354)" fill="#484848"/>
    <path id="Path_1517" data-name="Path 1517" d="M380.783-186.869a.92.92,0,0,0-.344.219c-.122.145-.222.4-.179.464.011.011.258.172.554.355.6.373.645.389.767.267a.234.234,0,0,0,.025-.3c-.023-.029-.172-.269-.332-.529s-.3-.482-.317-.491C380.925-186.907,380.88-186.9,380.783-186.869Z" transform="translate(-372.601 199.813)" fill="#484848"/>
  </g>
</svg>
