<svg xmlns="http://www.w3.org/2000/svg" width="20" height="20" viewBox="0 0 20 20">
  <g id="Group_3822" data-name="Group 3822" transform="translate(-1311 -286)">
    <rect id="Rectangle_151" data-name="Rectangle 151" width="20" height="20" transform="translate(1311 286)" fill="none"/>
    <g id="Group_3573" data-name="Group 3573" transform="translate(15953.854 8096.401)">
      <circle id="Ellipse_437" data-name="Ellipse 437" cx="8.148" cy="8.148" r="8.148" transform="translate(-14638.911 -7810.401) rotate(14)" fill="#00cb45"/>
      <path id="Path_1319" data-name="Path 1319" d="M9.584,0a2.827,2.827,0,0,0-.458.52C9.039.634,8.9.8,8.826.9s-.253.319-.392.5c-.27.34-.363.458-.572.72-.3.377-.979,1.223-1.1,1.383-.075.1-.178.224-.23.284s-.116.145-.143.185-.149.193-.27.34-.274.338-.342.427-.17.216-.224.282-.193.243-.309.392S5,5.714,4.952,5.76a2.06,2.06,0,0,0-.131.166,1.472,1.472,0,0,1-.135.174c-.048.052-.124.147-.174.216s-.16.209-.249.321l-.286.355c-.068.085-.176.22-.243.3s-.153.193-.2.255-.1.112-.114.112a.488.488,0,0,1-.139-.06c-.056-.033-.328-.172-.6-.311s-.744-.377-1.047-.533C.395,6.113.366,6.1.21,6.1H.071l-.037.089a.332.332,0,0,0,0,.284,2.576,2.576,0,0,0,.224.276c.1.118.313.353.46.523.419.477.467.531.583.653s.493.552.651.738c.039.048.2.226.355.394s.342.382.415.469a14.512,14.512,0,0,0,.991,1.068.387.387,0,0,0,.4-.012c.083-.052.118-.1.307-.44.116-.209.224-.4.238-.413a1.082,1.082,0,0,0,.083-.145c.118-.228.39-.717.456-.819.035-.058.091-.156.12-.218s.081-.162.114-.218.145-.253.247-.435.222-.388.263-.454A.882.882,0,0,0,6.012,7.3a.677.677,0,0,1,.068-.126c.037-.06.118-.2.18-.315a5.909,5.909,0,0,1,.292-.518c.029-.046.089-.153.131-.238a1.4,1.4,0,0,1,.106-.187,1.324,1.324,0,0,0,.093-.166c.037-.075.151-.284.255-.467s.207-.369.232-.415c.17-.307.33-.585.35-.612a2.584,2.584,0,0,0,.137-.238c.185-.348.773-1.41.79-1.42s.081-.137.164-.29.222-.406.309-.56.172-.309.189-.342.143-.255.274-.489c.39-.693.388-.684.3-.838C9.839,0,9.609-.006,9.584,0Z" transform="translate(-14636.506 -7806.888) rotate(14)" fill="#fff"/>
    </g>
  </g>
</svg>
