<svg xmlns="http://www.w3.org/2000/svg" width="15.023" height="14.986" viewBox="0 0 15.023 14.986">
  <g id="Group_3772" data-name="Group 3772" transform="translate(24414.512 15746.493)">
    <g id="replace-pictures" transform="translate(-24447.412 -15267.493)">
      <path id="Path_2867" data-name="Path 2867" d="M49.319-478.936a.806.806,0,0,0-.161.131c-.155.171-.155.168-.158,3.1,0,1.808.013,2.816.034,2.9a.689.689,0,0,0,.124.228c.178.212-.013.2,3.279.2h3l.114-.077a.672.672,0,0,0,.192-.225l.074-.148v-5.719l-.074-.148a.674.674,0,0,0-.192-.225L55.441-479H52.431C49.558-479,49.417-479,49.319-478.936Zm5.393,3.246v2.134h-4.57v-4.267h4.57Z" transform="translate(-15.559 0)" fill="#333"/>
      <path id="Path_2868" data-name="Path 2868" d="M296.236-478.776a.739.739,0,0,0-.346.316.659.659,0,0,0,.218.769,1.985,1.985,0,0,0,.487.128,4.33,4.33,0,0,1,1.243.386,3.434,3.434,0,0,1,1.919,2.507l.02.094H298.77l.81,1.213a14.4,14.4,0,0,0,.833,1.186c.017-.017.383-.564.823-1.216l.793-1.183h-.571c-.554,0-.571,0-.571-.067a4.734,4.734,0,0,0-.218-.931,4.713,4.713,0,0,0-3.831-3.169C296.408-478.816,296.381-478.816,296.236-478.776Z" transform="translate(-254.106 -0.19)" fill="#333"/>
      <path id="Path_2869" data-name="Path 2869" d="M33.713-248.79l-.813,1.21h1.069l.04.41a4.835,4.835,0,0,0,.245,1.22,4.69,4.69,0,0,0,3.185,2.994,3.709,3.709,0,0,0,1.216.185.588.588,0,0,0,.43-.591.53.53,0,0,0-.192-.427.669.669,0,0,0-.464-.175,4.76,4.76,0,0,1-1.613-.538A3.475,3.475,0,0,1,35.141-247a3.274,3.274,0,0,1-.054-.444v-.141h.521a3.907,3.907,0,0,0,.521-.017c0-.02-.78-1.189-1.3-1.956L34.523-250Z" transform="translate(0 -221.305)" fill="#333"/>
      <path id="Path_2870" data-name="Path 2870" d="M261.352-230.7a.611.611,0,0,0-.289.316,14.906,14.906,0,0,0-.064,2.97c0,3.064-.007,2.964.178,3.158.168.181.023.175,3.236.175,2.94,0,2.98,0,3.1-.071a.682.682,0,0,0,.2-.188l.084-.124v-5.887l-.081-.118a.88.88,0,0,0-.168-.181c-.084-.067-.144-.067-3.111-.074C262.78-230.722,261.389-230.712,261.352-230.7Zm5.353,3.283-.01,2.11-2.275.01-2.278.007v-4.234h4.57Z" transform="translate(-220.435 -239.938)" fill="#333"/>
    </g>
  </g>
</svg>
