<svg id="Dashboard" xmlns="http://www.w3.org/2000/svg" width="48" height="48" viewBox="0 0 48 48">
  <rect id="Default" width="48" height="48" fill="none"/>
  <g id="Default_Icon" data-name="Default Icon" transform="translate(6 6)">
    <rect id="Rectangle_1459" data-name="Rectangle 1459" width="36" height="36" fill="none"/>
    <g id="Group_4476" data-name="Group 4476" transform="translate(-3794 152)">
      <rect id="Rectangle_1477" data-name="Rectangle 1477" width="36" height="36" rx="4" transform="translate(3794 -152)" fill="none"/>
      <path id="team_dashboard_FILL0_wght400_GRAD0_opsz48" d="M7.667,26A1.66,1.66,0,0,1,6,24.333V7.667A1.66,1.66,0,0,1,7.667,6H24.333A1.66,1.66,0,0,1,26,7.667V24.333A1.66,1.66,0,0,1,24.333,26Zm6.389-1.667v-7.5H7.667v7.5Zm1.667,0h8.611v-7.5H15.722ZM7.667,15.167H24.333v-7.5H7.667Z" transform="translate(3796 -150)" fill="#666"/>
    </g>
  </g>
</svg>
