<svg id="Other_Apps" data-name="Other Apps" xmlns="http://www.w3.org/2000/svg" width="48" height="48" viewBox="0 0 48 48">
  <rect id="Rectangle_1107" data-name="Rectangle 1107" width="48" height="48" fill="none"/>
  <g id="Group_4473" data-name="Group 4473" transform="translate(-3407 87)">
    <rect id="Rectangle_1476" data-name="Rectangle 1476" width="36" height="36" transform="translate(3413 -81)" fill="none"/>
    <path id="app_registration_FILL0_wght400_GRAD0_opsz48" d="M9.835,26a1.764,1.764,0,0,1-1.307-.534,1.918,1.918,0,0,1,0-2.644,1.864,1.864,0,0,1,2.613,0,1.918,1.918,0,0,1,0,2.644A1.764,1.764,0,0,1,9.835,26Zm0-7.144a1.764,1.764,0,0,1-1.307-.534,1.918,1.918,0,0,1,0-2.644,1.864,1.864,0,0,1,2.613,0,1.918,1.918,0,0,1,0,2.644A1.764,1.764,0,0,1,9.835,18.856Zm0-7.144a1.764,1.764,0,0,1-1.307-.534,1.918,1.918,0,0,1,0-2.644,1.864,1.864,0,0,1,2.613,0,1.918,1.918,0,0,1,0,2.644A1.764,1.764,0,0,1,9.835,11.713ZM16.9,18.856a1.764,1.764,0,0,1-1.307-.534,1.918,1.918,0,0,1,0-2.644,1.864,1.864,0,0,1,2.613,0A1.806,1.806,0,0,1,18.73,17Zm0-7.144a1.764,1.764,0,0,1-1.307-.534,1.918,1.918,0,0,1,0-2.644,1.864,1.864,0,0,1,2.613,0,1.918,1.918,0,0,1,0,2.644A1.764,1.764,0,0,1,16.9,11.713ZM15.783,26V24.172l6.755-6.834,1.807,1.828L17.59,26Zm8.173-14.287a1.764,1.764,0,0,1-1.307-.534,1.918,1.918,0,0,1,0-2.644,1.864,1.864,0,0,1,2.613,0,1.918,1.918,0,0,1,0,2.644A1.764,1.764,0,0,1,23.956,11.713Zm1.112,6.722-1.807-1.828.695-.7a.8.8,0,0,1,.556-.239.705.705,0,0,1,.556.211l.723.731a.723.723,0,0,1,.208.563.819.819,0,0,1-.236.563Z" transform="translate(3414 -80)" fill="#666"/>
  </g>
</svg>
