<svg id="Research" xmlns="http://www.w3.org/2000/svg" width="48" height="48" viewBox="0 0 48 48">
  <rect id="Rectangle_1107" data-name="Rectangle 1107" width="48" height="48" fill="none"/>
  <g id="Group_4468" data-name="Group 4468" transform="translate(-3138 134)">
    <rect id="Rectangle_1472" data-name="Rectangle 1472" width="36" height="36" transform="translate(3144 -128)" fill="none"/>
    <path id="manage_search_FILL0_wght400_GRAD0_opsz48" d="M4,26.3V24.65H15V26.3Zm0-5.775v-1.65H9.5v1.65ZM4,14.75V13.1H9.5v1.65ZM24.845,26.3l-4.4-4.4a5.221,5.221,0,0,1-1.54.825A5.356,5.356,0,0,1,17.2,23a5.493,5.493,0,0,1-5.5-5.5A5.493,5.493,0,0,1,17.2,12a5.493,5.493,0,0,1,5.5,5.5,5.356,5.356,0,0,1-.275,1.705,5.221,5.221,0,0,1-.825,1.54l4.4,4.4ZM17.2,21.35a3.85,3.85,0,0,0,3.85-3.85,3.85,3.85,0,0,0-3.85-3.85,3.85,3.85,0,0,0-3.85,3.85,3.85,3.85,0,0,0,3.85,3.85Z" transform="translate(3147 -129)" fill="#666"/>
  </g>
</svg>
