<svg xmlns="http://www.w3.org/2000/svg" width="36" height="36" viewBox="0 0 36 36">
  <g id="Group_4588" data-name="Group 4588" transform="translate(-62 -394)">
    <rect id="Rectangle_1499" data-name="Rectangle 1499" width="36" height="36" rx="3" transform="translate(62 394)" fill="#a2c5ee"/>
    <path id="note_alt_FILL0_wght400_GRAD0_opsz48" d="M10.251,18.159h1.536l6.53-6.53-1.511-1.562-6.556,6.556Zm8.527-6.991,1-1a.6.6,0,0,0,.192-.4.551.551,0,0,0-.192-.423l-.743-.717a.539.539,0,0,0-.41-.192.593.593,0,0,0-.384.192l-.973.973ZM7.536,22.486A1.53,1.53,0,0,1,6,20.95V5.585A1.53,1.53,0,0,1,7.536,4.049h5.25a2.272,2.272,0,0,1,.819-1.472,2.547,2.547,0,0,1,3.227,0,2.272,2.272,0,0,1,.819,1.472H22.9a1.53,1.53,0,0,1,1.536,1.536V20.95A1.53,1.53,0,0,1,22.9,22.486Zm0-1.536H22.9V5.585H7.536Zm7.682-15.8a.887.887,0,0,0,.627-1.524.887.887,0,1,0-1.255,1.255A.86.86,0,0,0,15.219,5.15ZM7.536,20.95v0Z" transform="translate(64.781 398.889)" fill="#fff"/>
  </g>
</svg>
