<svg xmlns="http://www.w3.org/2000/svg" width="165" height="60" viewBox="0 0 165 60">
  <g id="Group_4616" data-name="Group 4616" transform="translate(-531 -348)">
    <g id="Group_4521" data-name="Group 4521" transform="translate(56 140)">
      <g id="Rectangle_1497" data-name="Rectangle 1497" transform="translate(475 208)" fill="#fff" stroke="#eee" stroke-width="1">
        <rect width="165" height="60" rx="2" stroke="none"/>
        <rect x="0.5" y="0.5" width="164" height="59" rx="1.5" fill="none"/>
      </g>
      <rect id="Rectangle_1498" data-name="Rectangle 1498" width="165" height="10" rx="2" transform="translate(475 208)" fill="#535353"/>
      <rect id="Rectangle_1499" data-name="Rectangle 1499" width="10" height="60" rx="2" transform="translate(475 208)" fill="#535353"/>
    </g>
    <g id="Group_4506" data-name="Group 4506" transform="translate(164.673 -349.524)">
      <g id="Group_4081" data-name="Group 4081" transform="translate(493.795 717.757)">
        <path id="path170" d="M375.743-482.189a16.67,16.67,0,0,0-4.423-10.68l-10.68,10.68h15.1" transform="translate(-347.745 495.831)" fill="#4e90af"/>
        <path id="path172" d="M330.465-490.346l9.666-9.666a14.2,14.2,0,0,0-9.666-3.781,14.2,14.2,0,0,0-9.666,3.781l9.666,9.666" transform="translate(-318.705 503.794)" fill="#e7d0a9"/>
        <path id="path174" d="M358.186-450.008v12.454a12.982,12.982,0,0,0,12.454-12.454H358.186" transform="translate(-345.955 464.591)" fill="#81b0c6"/>
        <path id="path176" d="M324.366-472.989l-8.171-8.17a11.72,11.72,0,0,0-3.12,7.975,11.759,11.759,0,0,0,11.29,11.749v-11.554" transform="translate(-313.075 487.296)" fill="#28799e"/>
      </g>
      <g id="Group_4082" data-name="Group 4082" transform="translate(458.267 717.524)">
        <path id="path196" d="M118.127-470.286a10.223,10.223,0,0,1-.366,2.709l3.36,1.109a13.761,13.761,0,0,0,.541-3.818,13.688,13.688,0,0,0-1.759-6.728l-3.017,1.844a10.178,10.178,0,0,1,1.241,4.885" transform="translate(-94.147 484.03)" fill="#4e90af" stroke="#707070" stroke-width="0.133"/>
        <path id="path198" d="M90.2-495.6a10.209,10.209,0,0,1,7.926,4.445L101.14-493A13.742,13.742,0,0,0,90.2-499.133v3.535" transform="translate(-75.922 499.133)" fill="#e7d0a9"/>
        <path id="path200" d="M54.587-476.144a10.222,10.222,0,0,1-5.858-9.245A10.222,10.222,0,0,1,58.436-495.6v-3.535a13.755,13.755,0,0,0-13.242,13.744,13.755,13.755,0,0,0,8.046,12.515l1.347-3.27" transform="translate(-45.194 499.133)" fill="#28799e"/>
        <path id="path202" d="M87.857-444.17a10.224,10.224,0,0,1-9.533,6.533,10.2,10.2,0,0,1-3.411-.586l-1.348,3.275a13.73,13.73,0,0,0,4.759.846,13.762,13.762,0,0,0,12.9-8.959l-3.363-1.11" transform="translate(-64.567 461.603)" fill="#81b0c6" stroke="#9b9b9b" stroke-width="0.133"/>
      </g>
    </g>
  </g>
</svg>
