<svg xmlns="http://www.w3.org/2000/svg" width="26" height="26" viewBox="0 0 26 26">
  <g id="icon-pinterest" transform="translate(-234 -242)">
    <rect id="Rectangle_1470" data-name="Rectangle 1470" width="26" height="26" rx="5" transform="translate(234 242)" fill="#ec2327"/>
    <g id="icons8-pinterest" transform="translate(238.483 246.483)">
      <path id="Path_5" data-name="Path 5" d="M11.517,3a8.517,8.517,0,1,0,8.517,8.517A8.517,8.517,0,0,0,11.517,3Z" transform="translate(-3 -3)" fill="#fff"/>
      <path id="Path_6" data-name="Path 6" d="M13.553,24.46a7.972,7.972,0,0,1,.029-2.388c.151-.649.976-4.138.976-4.138a3,3,0,0,1-.249-1.235c0-1.158.671-2.021,1.506-2.021a1.045,1.045,0,0,1,1.053,1.172,16.688,16.688,0,0,1-.69,2.771,1.209,1.209,0,0,0,1.233,1.5c1.479,0,2.617-1.56,2.617-3.812a3.286,3.286,0,0,0-3.476-3.386,3.6,3.6,0,0,0-3.758,3.612,3.238,3.238,0,0,0,.619,1.9.249.249,0,0,1,.058.239c-.063.263-.2.828-.231.944-.036.153-.121.184-.278.111a3.731,3.731,0,0,1-1.69-3.225c0-2.625,1.907-5.037,5.5-5.037A4.885,4.885,0,0,1,21.9,16.28c0,2.869-1.809,5.177-4.319,5.177a2.226,2.226,0,0,1-1.907-.956s-.417,1.589-.519,1.979a9.274,9.274,0,0,1-1.035,2.182C13.988,24.758,13.59,24.7,13.553,24.46Z" transform="translate(-8.069 -8.192)" fill="#ec2327"/>
    </g>
  </g>
</svg>
