<svg xmlns="http://www.w3.org/2000/svg" width="26" height="26" viewBox="0 0 26 26">
  <g id="icon-twitter" transform="translate(-269 -242)">
    <rect id="Rectangle_1470" data-name="Rectangle 1470" width="26" height="26" rx="5" transform="translate(269 242)" fill="#50abf1"/>
    <path id="icons8-twitter" d="M19.829,8.289a7.756,7.756,0,0,1-2.219.609,3.877,3.877,0,0,0,1.7-2.137,7.749,7.749,0,0,1-2.454.937,3.865,3.865,0,0,0-6.581,3.523A10.97,10.97,0,0,1,2.312,7.184a3.87,3.87,0,0,0,1.2,5.158,3.842,3.842,0,0,1-1.749-.484v.049a3.866,3.866,0,0,0,3.1,3.788,3.857,3.857,0,0,1-1.745.066,3.871,3.871,0,0,0,3.609,2.683,7.746,7.746,0,0,1-4.8,1.653A7.662,7.662,0,0,1,1,20.044a10.928,10.928,0,0,0,5.921,1.736A10.916,10.916,0,0,0,17.914,10.79c0-.168,0-.336-.011-.5A7.85,7.85,0,0,0,19.829,8.289Z" transform="translate(271.585 241.768)" fill="#fff"/>
  </g>
</svg>
