<svg xmlns="http://www.w3.org/2000/svg" width="36" height="36" viewBox="0 0 36 36">
  <g id="Group_4588" data-name="Group 4588" transform="translate(-62 -394)">
    <rect id="Rectangle_1499" data-name="Rectangle 1499" width="36" height="36" rx="3" transform="translate(62 394)" fill="#912bbf"/>
    <g id="icons8-microsoft-onenote" transform="translate(68 401.682)">
      <path id="Path_5703" data-name="Path 5703" d="M12.274,22.888H10.825L8.2,18.355a6.6,6.6,0,0,1-.32-.6H7.862q.036.382.036,1.167v3.965H6.543V15.673H8.089l2.528,4.392q.174.3.32.589h.017a8.779,8.779,0,0,1-.035-.991v-3.99h1.355v7.215Z" transform="translate(-3.391 -8.976)" fill="#fff"/>
      <path id="Path_5704" data-name="Path 5704" d="M1,3.071v14.5l11.667,2.071V1ZM12.667,18.083h6.25V7.989h1.667A.4.4,0,0,0,21,7.6V3.33a.4.4,0,0,0-.417-.388H12.667" transform="translate(0 0)" fill="none" stroke="#fff" stroke-linecap="round" stroke-linejoin="round" stroke-miterlimit="10" stroke-width="1"/>
      <path id="Path_5705" data-name="Path 5705" d="M44,29.095h1.553a.388.388,0,0,0,.388-.388V24.436a.388.388,0,0,0-.388-.388H44m0,0h1.553a.388.388,0,0,0,.388-.388V19.388A.388.388,0,0,0,45.553,19H44" transform="translate(-24.941 -11.011)" fill="none" stroke="#fff" stroke-linecap="round" stroke-linejoin="round" stroke-miterlimit="10" stroke-width="1"/>
      <path id="Path_5706" data-name="Path 5706" d="M29,16h3.494M29,17.941h3.494M29,19.883h3.494M29,21.824h3.494M29,23.765h3.494" transform="translate(-16.15 -9.176)" fill="none" stroke="#fff" stroke-linejoin="round" stroke-miterlimit="10" stroke-width="1"/>
    </g>
  </g>
</svg>
