<svg xmlns="http://www.w3.org/2000/svg" width="13.246" height="13.246" viewBox="0 0 13.246 13.246">
  <path id="search_FILL0_wght400_GRAD0_opsz48" d="M18.313,19.2,14.762,15.65a4.675,4.675,0,0,1-1.485.86,5.248,5.248,0,0,1-1.8.308,5.281,5.281,0,0,1-3.882-1.592A5.236,5.236,0,0,1,6,11.384,5.236,5.236,0,0,1,7.591,7.542,5.256,5.256,0,0,1,11.452,5.95a5.2,5.2,0,0,1,3.829,1.592,5.434,5.434,0,0,1,1.284,5.6,5.388,5.388,0,0,1-.891,1.592l3.572,3.525Zm-6.86-3.653a3.969,3.969,0,0,0,2.928-1.22,4.026,4.026,0,0,0,1.209-2.94,4.026,4.026,0,0,0-1.209-2.94,3.969,3.969,0,0,0-2.928-1.22,4.166,4.166,0,0,0-4.179,4.16,4.166,4.166,0,0,0,4.179,4.16Z" transform="translate(-6 -5.95)" fill="#666"/>
</svg>
