<svg xmlns="http://www.w3.org/2000/svg" width="36" height="36" viewBox="0 0 36 36">
  <g id="Group_4588" data-name="Group 4588" transform="translate(-62 -394)">
    <rect id="Rectangle_1499" data-name="Rectangle 1499" width="36" height="36" rx="3" transform="translate(62 394)" fill="#5bb4df"/>
    <path id="work_history_FILL0_wght400_GRAD0_opsz48" d="M5.369,19.966v0Zm0,1.369A1.4,1.4,0,0,1,4,19.966V8.721A1.4,1.4,0,0,1,5.369,7.353H9.7V5.369a1.326,1.326,0,0,1,.411-.947A1.3,1.3,0,0,1,11.071,4h4.106a1.3,1.3,0,0,1,.958.422,1.326,1.326,0,0,1,.411.947V7.353h4.334a1.4,1.4,0,0,1,1.369,1.369V14.15a7.189,7.189,0,0,0-.65-.456,7.069,7.069,0,0,0-.718-.388V8.721H5.369V19.966h7.618a5.48,5.48,0,0,0,.228.707,5.3,5.3,0,0,0,.319.661Zm5.7-13.982h4.106V5.369H11.071ZM18.6,23a4.439,4.439,0,0,1-4.4-4.4,4.439,4.439,0,0,1,4.4-4.4A4.439,4.439,0,0,1,23,18.6,4.439,4.439,0,0,1,18.6,23Zm1.688-2.1.616-.616-1.916-1.733V15.724h-.958v3.1Z" transform="translate(67 400)" fill="#fff"/>
  </g>
</svg>
