<svg xmlns="http://www.w3.org/2000/svg" width="36" height="36" viewBox="0 0 36 36">
  <g id="Group_4588" data-name="Group 4588" transform="translate(-62 -394)">
    <rect id="Rectangle_1499" data-name="Rectangle 1499" width="36" height="36" rx="3" transform="translate(62 394)" fill="#186d97"/>
    <path id="task_FILL0_wght400_GRAD0_opsz48" d="M14.422,18.648l5.367-5.367-.914-.914L14.422,16.82l-2.414-2.414-.914.914Zm-5.016,4.1A1.442,1.442,0,0,1,8,21.344V5.406A1.442,1.442,0,0,1,9.406,4h8.461L23,9.133V21.344a1.442,1.442,0,0,1-1.406,1.406ZM17.164,9.766V5.406H9.406V21.344H21.594V9.766ZM9.406,5.406v0Z" transform="translate(64.5 398.625)" fill="#fff"/>
  </g>
</svg>
