<svg xmlns="http://www.w3.org/2000/svg" width="36" height="36" viewBox="0 0 36 36">
  <g id="Group_4616" data-name="Group 4616" transform="translate(-208 -529)">
    <g id="Group_4588" data-name="Group 4588" transform="translate(146 135)">
      <rect id="Rectangle_1499" data-name="Rectangle 1499" width="36" height="36" rx="3" transform="translate(62 394)" fill="#075dab"/>
    </g>
    <path id="group_FILL0_wght400_GRAD0_opsz48" d="M1.9,23V20.873a2.635,2.635,0,0,1,.407-1.437,2.478,2.478,0,0,1,1.131-.962,17.938,17.938,0,0,1,2.975-1.041,11.673,11.673,0,0,1,2.726-.317,11.53,11.53,0,0,1,2.715.317,18.091,18.091,0,0,1,2.964,1.041,2.546,2.546,0,0,1,1.143.962,2.583,2.583,0,0,1,.419,1.437V23Zm15.837,0V20.873a3.662,3.662,0,0,0-.724-2.342,5.3,5.3,0,0,0-1.9-1.482,22.437,22.437,0,0,1,2.941.532,10.367,10.367,0,0,1,2.24.8,3.5,3.5,0,0,1,1.176,1.063,2.48,2.48,0,0,1,.43,1.425V23Zm-8.6-7.262a3.255,3.255,0,0,1-3.394-3.394A3.255,3.255,0,0,1,9.14,8.95a3.255,3.255,0,0,1,3.394,3.394A3.255,3.255,0,0,1,9.14,15.737Zm8.145-3.394a3.255,3.255,0,0,1-3.394,3.394,5.059,5.059,0,0,1-.554-.034,2.393,2.393,0,0,1-.554-.124,3.713,3.713,0,0,0,.826-1.391,5.667,5.667,0,0,0,.283-1.844,5.266,5.266,0,0,0-.283-1.8,4.81,4.81,0,0,0-.826-1.437A4.775,4.775,0,0,1,13.337,9a3.813,3.813,0,0,1,.554-.045,3.255,3.255,0,0,1,3.394,3.394Zm-14.027,9.3H15.022v-.769a1.294,1.294,0,0,0-.215-.7,1.183,1.183,0,0,0-.532-.475,15.276,15.276,0,0,0-2.738-.973,10.94,10.94,0,0,0-2.4-.249,11.1,11.1,0,0,0-2.41.249,15.142,15.142,0,0,0-2.749.973,1.122,1.122,0,0,0-.52.475,1.346,1.346,0,0,0-.2.7ZM9.14,14.38a2.037,2.037,0,1,0,0-4.072,2.037,2.037,0,1,0,0,4.072ZM9.14,21.642ZM9.14,12.344Z" transform="translate(214.1 531.025)" fill="#fff"/>
  </g>
</svg>
