<svg id="bx-home-circle" xmlns="http://www.w3.org/2000/svg" width="20" height="20" viewBox="0 0 20 20">
  <rect id="Background" width="20" height="20" fill="none"/>
  <path id="Shape" d="M13.334,16.667h-10A1.669,1.669,0,0,1,1.667,15V9.167H.834a.833.833,0,0,1-.59-1.422l7.5-7.5a.831.831,0,0,1,1.178,0l7.5,7.5a.833.833,0,0,1-.589,1.422H15V15A1.669,1.669,0,0,1,13.334,16.667Zm-5-14.656h0l-5,5V15h10V7.012l-5-5Z" transform="translate(1.666 1.666)"/>
  <path id="Shape-2" data-name="Shape" d="M3.334,6.666A3.333,3.333,0,1,1,6.666,3.334,3.337,3.337,0,0,1,3.334,6.666Zm0-5A1.667,1.667,0,1,0,5,3.334,1.669,1.669,0,0,0,3.334,1.667Z" transform="translate(6.667 7.5)"/>
</svg>
