<svg xmlns="http://www.w3.org/2000/svg" width="114.943" height="15" viewBox="0 0 114.943 15">
  <g id="Group_4456" data-name="Group 4456" transform="translate(85 -83)">
    <path id="Path_56" data-name="Path 56" d="M2551.817,2190h1.065v10.183a.456.456,0,0,0,.094.322.407.407,0,0,0,.281.118v.849a2.131,2.131,0,0,1-.485.03.855.855,0,0,1-.58-.266.769.769,0,0,1-.251-.549v-.8a3.56,3.56,0,0,1-1.316,1.272,3.438,3.438,0,0,1-1.724.472,3.534,3.534,0,0,1-1.559-.344,3.872,3.872,0,0,1-1.237-.937,4.4,4.4,0,0,1-.815-1.352,4.353,4.353,0,0,1-.29-1.571,4.694,4.694,0,0,1,.479-2.119,3.973,3.973,0,0,1,1.323-1.539,3.333,3.333,0,0,1,1.928-.578,3.19,3.19,0,0,1,1.825.543,4.078,4.078,0,0,1,1.262,1.311Zm-2.821,4.133a2.581,2.581,0,0,0-1.192.273,2.888,2.888,0,0,0-.917.742,3.4,3.4,0,0,0-.587,1.062,3.7,3.7,0,0,0-.2,1.217,3.442,3.442,0,0,0,.228,1.247,3.249,3.249,0,0,0,.65,1.053,2.973,2.973,0,0,0,.971.71,2.84,2.84,0,0,0,1.192.251,2.514,2.514,0,0,0,.846-.157,3.687,3.687,0,0,0,.838-.43,2.623,2.623,0,0,0,.666-.647,1.81,1.81,0,0,0,.33-.781v-2.511a2.828,2.828,0,0,0-.659-1.023,3.653,3.653,0,0,0-1.027-.733A2.62,2.62,0,0,0,2549,2194.133Z" transform="translate(-2618.54 -2107)" fill="#fff" fill-rule="evenodd"/>
    <path id="Path_57" data-name="Path 57" d="M2897.179,2192a4.954,4.954,0,0,1,2.7.664,4.351,4.351,0,0,1,1.579,1.731l-.853.556a3.469,3.469,0,0,0-1.437-1.5,4.193,4.193,0,0,0-2.006-.48,3.616,3.616,0,0,0-1.682.388,4.056,4.056,0,0,0-1.288,1.035,4.564,4.564,0,0,0-.812,1.468,5.3,5.3,0,0,0-.276,1.7,4.856,4.856,0,0,0,.315,1.753,4.579,4.579,0,0,0,.9,1.468,4.336,4.336,0,0,0,1.352,1,3.788,3.788,0,0,0,1.65.364,3.992,3.992,0,0,0,1.942-.5,4.965,4.965,0,0,0,.9-.641l.683-.728v-1.792h-2.494v-.834h3.426v5.392h-.932v-1.635l-.661.652a4.545,4.545,0,0,1-2.939,1.06,4.664,4.664,0,0,1-2.085-.472,5.332,5.332,0,0,1-1.674-1.274,5.971,5.971,0,0,1-1.1-1.792,5.556,5.556,0,0,1-.388-2.039,5.789,5.789,0,0,1,1.468-3.878,5.129,5.129,0,0,1,1.643-1.22A4.782,4.782,0,0,1,2897.179,2192Z" transform="translate(-2907.057 -2108.663)" fill="#fff" fill-rule="evenodd"/>
    <path id="Path_58" data-name="Path 58" d="M2481.613,2192h.917l4.583,11.124h-1.149l-1.379-3.479h-5.041l-1.379,3.479H2477Zm.452,1.284-2.179,5.5h4.358Z" transform="translate(-2562 -2108.663)" fill="#fff" fill-rule="evenodd"/>
    <path id="Path_59" data-name="Path 59" d="M2680.48,2208a4.213,4.213,0,0,1,1.64.3,3,3,0,0,1,1.161.831l-.51.723a2.7,2.7,0,0,0-1.03-.747,3.474,3.474,0,0,0-1.323-.243,3.272,3.272,0,0,0-.942.133,1.6,1.6,0,0,0-.735.437,1.161,1.161,0,0,0-.286.834.982.982,0,0,0,.216.677,1.628,1.628,0,0,0,.651.406q.432.164,1.067.351.913.25,1.594.507a2.7,2.7,0,0,1,1.052.662,1.628,1.628,0,0,1,.371,1.139,2.1,2.1,0,0,1-.851,1.778,3.636,3.636,0,0,1-2.243.639,5.036,5.036,0,0,1-1.84-.33,3.866,3.866,0,0,1-1.47-1l.433-.753a4.673,4.673,0,0,0,1.369.934,3.752,3.752,0,0,0,1.463.29,2.765,2.765,0,0,0,1.53-.381,1.229,1.229,0,0,0,.588-1.1.944.944,0,0,0-.286-.742,2.169,2.169,0,0,0-.819-.421c-.355-.109-.782-.226-1.276-.351a9.8,9.8,0,0,1-1.4-.492,2.075,2.075,0,0,1-.851-.656,1.735,1.735,0,0,1-.287-1.037,2.131,2.131,0,0,1,.395-1.32,2.463,2.463,0,0,1,1.083-.8A4.146,4.146,0,0,1,2680.48,2208Z" transform="translate(-2728.292 -2121.966)" fill="#fff" fill-rule="evenodd"/>
    <path id="Path_60" data-name="Path 60" d="M2728.053,2209a3.832,3.832,0,0,1,1.611.335,4.035,4.035,0,0,1,1.283.92,4.191,4.191,0,0,1,.846,1.343,4.441,4.441,0,0,1,.3,1.63,4.352,4.352,0,0,1-.3,1.6,4.293,4.293,0,0,1-.838,1.343,3.894,3.894,0,0,1-2.919,1.255,3.886,3.886,0,0,1-1.62-.335,3.946,3.946,0,0,1-1.283-.92,4.293,4.293,0,0,1-.838-1.343,4.352,4.352,0,0,1-.3-1.6,4.441,4.441,0,0,1,.3-1.63,4.191,4.191,0,0,1,.846-1.343,4.016,4.016,0,0,1,1.291-.92A3.882,3.882,0,0,1,2728.053,2209Zm-.017.942a2.568,2.568,0,0,0-1.478.452,3.4,3.4,0,0,0-1.478,2.85,3.425,3.425,0,0,0,.4,1.645,3.092,3.092,0,0,0,1.072,1.168,2.776,2.776,0,0,0,2.973-.007,3.207,3.207,0,0,0,1.08-1.193,3.544,3.544,0,0,0,0-3.295,3.219,3.219,0,0,0-1.08-1.185A2.682,2.682,0,0,0,2728.037,2209.942Z" transform="translate(-2767.371 -2122.798)" fill="#fff" fill-rule="evenodd"/>
    <path id="Path_61" data-name="Path 61" d="M2999.053,2209a3.832,3.832,0,0,1,1.611.335,4.035,4.035,0,0,1,1.283.92,4.191,4.191,0,0,1,.846,1.343,4.436,4.436,0,0,1,.3,1.63,4.347,4.347,0,0,1-.3,1.6,4.293,4.293,0,0,1-.838,1.343,3.894,3.894,0,0,1-2.919,1.255,3.886,3.886,0,0,1-1.62-.335,3.946,3.946,0,0,1-1.283-.92,4.293,4.293,0,0,1-.838-1.343,4.352,4.352,0,0,1-.3-1.6,4.441,4.441,0,0,1,.3-1.63,4.191,4.191,0,0,1,.846-1.343,4.016,4.016,0,0,1,1.291-.92A3.882,3.882,0,0,1,2999.053,2209Zm-.017.942a2.568,2.568,0,0,0-1.478.452,3.4,3.4,0,0,0-1.478,2.85,3.425,3.425,0,0,0,.4,1.645,3.09,3.09,0,0,0,1.072,1.168,2.776,2.776,0,0,0,2.973-.007,3.207,3.207,0,0,0,1.08-1.193,3.544,3.544,0,0,0,0-3.295,3.219,3.219,0,0,0-1.08-1.185A2.682,2.682,0,0,0,2999.037,2209.942Z" transform="translate(-2992.697 -2122.798)" fill="#fff" fill-rule="evenodd"/>
    <path id="Path_62" data-name="Path 62" d="M3116.939,2209a3.337,3.337,0,0,1,1.529.352,3.882,3.882,0,0,1,1.205.946,4.5,4.5,0,0,1,.794,1.352,4.373,4.373,0,0,1,.287,1.571,4.849,4.849,0,0,1-.455,2.1,3.9,3.9,0,0,1-1.274,1.539,3.234,3.234,0,0,1-1.916.578,3.165,3.165,0,0,1-1.8-.531,4.043,4.043,0,0,1-1.259-1.313v5.034H3113v-11.5h.942v1.593a3.713,3.713,0,0,1,1.282-1.242A3.29,3.29,0,0,1,3116.939,2209Zm-.248.942a2.444,2.444,0,0,0-.834.157,3.254,3.254,0,0,0-.826.445,2.938,2.938,0,0,0-.656.646,1.733,1.733,0,0,0-.325.765v2.5a3.721,3.721,0,0,0,.664,1.037,3.248,3.248,0,0,0,.966.733,2.517,2.517,0,0,0,1.134.273,2.544,2.544,0,0,0,1.19-.273,2.833,2.833,0,0,0,.9-.742,3.447,3.447,0,0,0,.58-1.053,3.72,3.72,0,0,0,.2-1.208,3.518,3.518,0,0,0-.224-1.249,3.188,3.188,0,0,0-.64-1.045,3.231,3.231,0,0,0-.959-.718A2.616,2.616,0,0,0,3116.691,2209.942Z" transform="translate(-3090.81 -2122.798)" fill="#fff" fill-rule="evenodd"/>
    <path id="Path_63" data-name="Path 63" d="M2788.851,2209a1.047,1.047,0,0,1,.194.015v.978a3.325,3.325,0,0,0-1.859.6,3,3,0,0,0-1.128,1.561v5.107H2785v-8.179h1v1.938a3.866,3.866,0,0,1,1.112-1.4,2.737,2.737,0,0,1,1.47-.6C2788.683,2209.005,2788.772,2209,2788.851,2209Z" transform="translate(-2818.09 -2122.798)" fill="#fff" fill-rule="evenodd"/>
    <path id="Path_64" data-name="Path 64" d="M2967.851,2209a1.047,1.047,0,0,1,.194.015v.978a3.325,3.325,0,0,0-1.859.6,3,3,0,0,0-1.127,1.561v5.107H2964v-8.179h1v1.938a3.866,3.866,0,0,1,1.112-1.4,2.737,2.737,0,0,1,1.47-.6C2967.683,2209.005,2967.772,2209,2967.851,2209Z" transform="translate(-2966.922 -2122.798)" fill="#fff" fill-rule="evenodd"/>
    <path id="Path_65" data-name="Path 65" d="M2659,2190h1.011v1.517H2659Z" transform="translate(-2713.326 -2107)" fill="#fff" fill-rule="evenodd"/>
    <path id="Path_66" data-name="Path 66" d="M2659,2210h1.011v8.09H2659Z" transform="translate(-2713.326 -2123.629)" fill="#fff" fill-rule="evenodd"/>
    <path id="Path_67" data-name="Path 67" d="M2602,2210h1.112l2.788,7.035,2.8-7.035h1.05l-3.305,8.09h-1.143Z" transform="translate(-2665.933 -2123.629)" fill="#fff" fill-rule="evenodd"/>
    <path id="Path_68" data-name="Path 68" d="M2813,2210h1.124l2.985,7.043,2.75-7.043h1.062l-4.219,10.495a1.815,1.815,0,0,1-.329.554,1.574,1.574,0,0,1-.538.406,2.062,2.062,0,0,1-.791.164,1.654,1.654,0,0,1-.288.007,3.272,3.272,0,0,1-.352-.039v-.956c.146.012.286.019.423.023a.837.837,0,0,0,.3-.023.636.636,0,0,0,.359-.217,2.882,2.882,0,0,0,.406-.718q.235-.531.656-1.561Z" transform="translate(-2841.371 -2123.629)" fill="#fff" fill-rule="evenodd"/>
    <path id="Path_69" data-name="Path 69" d="M3055,2210h1.075v4.571a3.592,3.592,0,0,0,.482,2.066,1.636,1.636,0,0,0,1.431.684,2.892,2.892,0,0,0,1.225-.271,3.2,3.2,0,0,0,1.052-.777,3.434,3.434,0,0,0,.7-1.171V2210h1.075v6.824a.457.457,0,0,0,.094.318.423.423,0,0,0,.285.116v.843c-.126.012-.226.019-.3.024s-.143.009-.206.009a.9.9,0,0,1-.546-.25.752.752,0,0,1-.244-.528l-.032-1.089a3.893,3.893,0,0,1-1.463,1.461,3.965,3.965,0,0,1-2,.529,2.3,2.3,0,0,1-1.96-.886,4.314,4.314,0,0,1-.664-2.612Z" transform="translate(-3042.585 -2123.629)" fill="#fff" fill-rule="evenodd"/>
  </g>
</svg>
