<svg xmlns="http://www.w3.org/2000/svg" width="42" height="42" viewBox="0 0 42 42">
  <g id="Group_4450" data-name="Group 4450" transform="translate(15184 11464)">
    <rect id="Rectangle_1470" data-name="Rectangle 1470" width="42" height="42" transform="translate(-15184 -11464)" fill="none"/>
    <path id="timeline_FILL0_wght400_GRAD0_opsz48" d="M3.909,25.091a1.839,1.839,0,0,1-1.35-.559,1.909,1.909,0,0,1,0-2.7,1.839,1.839,0,0,1,1.35-.559q.136,0,.273.014a2.6,2.6,0,0,1,.355.068L9.991,15.9a2.6,2.6,0,0,1-.068-.355q-.014-.136-.014-.273a1.909,1.909,0,0,1,3.259-1.35,1.839,1.839,0,0,1,.559,1.35q0,.055-.082.627l3,3A2.6,2.6,0,0,1,17,18.832q.136-.014.273-.014t.273.014a2.6,2.6,0,0,1,.355.068l4.364-4.364a2.6,2.6,0,0,1-.068-.355q-.014-.136-.014-.273a1.909,1.909,0,1,1,1.909,1.909q-.136,0-.273-.014a2.6,2.6,0,0,1-.355-.068L19.1,20.1a2.6,2.6,0,0,1,.068.355q.014.136.014.273a1.909,1.909,0,1,1-3.818,0q0-.136.014-.273a2.6,2.6,0,0,1,.068-.355l-3-3a2.6,2.6,0,0,1-.355.068q-.136.014-.273.014-.055,0-.627-.082L5.736,22.555a2.6,2.6,0,0,1,.068.355q.014.136.014.273a1.839,1.839,0,0,1-.559,1.35A1.839,1.839,0,0,1,3.909,25.091Z" transform="translate(-15177 -11462)"/>
  </g>
</svg>
