<svg xmlns="http://www.w3.org/2000/svg" width="42" height="42" viewBox="0 0 42 42">
  <g id="Group_4451" data-name="Group 4451" transform="translate(15230 11472)">
    <rect id="Rectangle_1470" data-name="Rectangle 1470" width="42" height="42" transform="translate(-15230 -11472)" fill="none"/>
    <path id="switch_access_shortcut_FILL0_wght400_GRAD0_opsz48" d="M8.19,19.39l-.69-1.5L6,17.2l1.5-.69.69-1.5.69,1.5,1.5.69-1.5.69ZM12,26.47l-1.05-2.22L8.73,23.2l2.22-1.05L12,19.93l1.05,2.22,2.22,1.05-2.22,1.05Zm0-12-1.05-2.22L8.73,11.2l2.22-1.05L12,7.93l1.05,2.22,2.22,1.05-2.22,1.05ZM25.2,28a12.753,12.753,0,0,1-5.865-4.875A12.7,12.7,0,0,1,17.1,16a12.374,12.374,0,0,1,1.305-5.43A15.743,15.743,0,0,1,21.96,5.8H16.92V4H25.2v8.28H23.4V6.91a14.3,14.3,0,0,0-3.285,4.305A10.707,10.707,0,0,0,18.9,16a10.841,10.841,0,0,0,1.74,5.82,11.219,11.219,0,0,0,4.56,4.2Z" transform="translate(-15225 -11467)"/>
  </g>
</svg>
