<svg id="User_Icon" data-name="User Icon" xmlns="http://www.w3.org/2000/svg" width="30" height="30" viewBox="0 0 30 30">
  <g id="Group_4437" data-name="Group 4437" transform="translate(0)">
    <path id="user" d="M30,15A15,15,0,1,0,4.869,26.05l-.014.013.487.41c.032.027.066.049.1.075.259.214.526.418.8.615.088.064.177.128.267.19q.437.3.9.572l.2.116c.334.19.676.37,1.025.535l.077.035a14.865,14.865,0,0,0,3.628,1.148l.1.018c.395.068.794.123,1.2.159l.148.011c.4.033.809.055,1.222.055s.812-.021,1.212-.053l.152-.011q.6-.055,1.188-.157l.1-.019a14.864,14.864,0,0,0,3.577-1.121l.125-.057q.5-.237.988-.511.12-.068.239-.138c.293-.173.582-.353.862-.545.1-.069.2-.141.3-.213.239-.172.475-.35.7-.536.051-.041.105-.076.155-.118l.5-.417-.015-.013A14.961,14.961,0,0,0,30,15ZM1.091,15A13.909,13.909,0,1,1,24.224,25.4a4.088,4.088,0,0,0-.487-.293L19.119,22.8a1.209,1.209,0,0,1-.672-1.087V20.1c.107-.132.22-.281.337-.446a11.115,11.115,0,0,0,1.427-2.794,1.98,1.98,0,0,0,1.137-1.794V13.129a1.985,1.985,0,0,0-.484-1.292V9.291a4.4,4.4,0,0,0-1.027-3.2C18.831,4.945,17.2,4.364,15,4.364s-3.831.581-4.837,1.728a4.4,4.4,0,0,0-1.027,3.2v2.546a1.987,1.987,0,0,0-.484,1.292v1.934A1.984,1.984,0,0,0,9.383,16.6a10.249,10.249,0,0,0,1.687,3.485v1.579a1.217,1.217,0,0,1-.634,1.068L6.124,25.084a3.941,3.941,0,0,0-.41.26A13.876,13.876,0,0,1,1.091,15Z" fill="#fff"/>
  </g>
  <g id="Ellipse_401" data-name="Ellipse 401" fill="none" stroke="#fff" stroke-width="1">
    <circle cx="15" cy="15" r="15" stroke="none"/>
    <circle cx="15" cy="15" r="14.5" fill="none"/>
  </g>
</svg>
