<svg xmlns="http://www.w3.org/2000/svg" width="26" height="26" viewBox="0 0 26 26">
  <g id="Group_4529" data-name="Group 4529" transform="translate(962.294 -4552.5)">
    <g id="Ellipse_531" data-name="Ellipse 531" transform="translate(-962.294 4552.5)" fill="#cfcfcf" stroke="rgba(155,155,155,0.32)" stroke-width="1">
      <circle cx="13" cy="13" r="13" stroke="none"/>
      <circle cx="13" cy="13" r="12.5" fill="none"/>
    </g>
    <g id="Group_4562" data-name="Group 4562" transform="translate(-957.686 4557.224)">
      <path id="Path_3577" data-name="Path 3577" d="M281.211,147.517a5.213,5.213,0,0,0-2.143.749,5.009,5.009,0,0,0-1.036,7.19,4.945,4.945,0,0,0,4.414,1.66,4.892,4.892,0,0,0,1.925-.651,4.491,4.491,0,0,0,1.344-1.228,4.911,4.911,0,0,0-2.906-7.65A5.148,5.148,0,0,0,281.211,147.517Z" transform="translate(-273.314 -147.482)" fill="#fff"/>
      <path id="Path_4585" data-name="Path 4585" d="M184.84,453.7a16.822,16.822,0,0,0-2.325.353,8.894,8.894,0,0,0-4.62,3.118,8.087,8.087,0,0,0-1.025,1.671c-.069.157-.249.4-.209.581.049.218.357.407.515.547a10.133,10.133,0,0,0,1.671,1.207,12.729,12.729,0,0,0,8.063,1.578,11.877,11.877,0,0,0,5.339-2.127c.34-.248.663-.508.981-.784.122-.106.332-.253.37-.42s-.147-.458-.22-.617a8.775,8.775,0,0,0-1.071-1.707,8.944,8.944,0,0,0-5.581-3.272A6.754,6.754,0,0,0,184.84,453.7Z" transform="translate(-176.655 -442.548)" fill="#fff"/>
    </g>
  </g>
</svg>
